<svg xmlns="http://www.w3.org/2000/svg" xmlns:xlink="http://www.w3.org/1999/xlink" contentStyleType="text/css" data-diagram-type="CLASS" height="667.6px" preserveAspectRatio="none" style="width:1406px;height:667px;background:#FFFFFF;" version="1.1" viewBox="0 0 1406 667" width="1406.8px" zoomAndPan="magnify"><defs/><g><!--cluster org--><g class="cluster" data-entity="org" data-source-line="1" data-uid="ent0003" id="cluster_org"><path d="M3.4,135.2055 L12.8207,135.2055 A1.5,1.5 0 0 1 13.8207,136.2055 L16.6207,145.0539 L1403,145.0539 A1,1 0 0 1 1404,146.0539 L1404,663.8055 A1,1 0 0 1 1403,664.8055 L3.4,664.8055 A1,1 0 0 1 2.4,663.8055 L2.4,136.2055 A1,1 0 0 1 3.4,135.2055" fill="none" style="stroke:#000000;stroke-width:0.6;"/><line style="stroke:#000000;stroke-width:0.6;" x1="2.4" x2="16.6207" y1="145.0539" y2="145.0539"/><text fill="#000000" font-family="sans-serif" font-size="5.6" font-weight="bold" lengthAdjust="spacing" textLength="9.0207" x="4" y="142.0484">org</text></g><!--cluster mrp--><g class="cluster" data-entity="mrp" data-source-line="1" data-uid="ent0004" id="cluster_mrp"><path d="M13,153.2055 L23.9793,153.2055 A1.5,1.5 0 0 1 24.9793,154.2055 L27.7793,163.0539 L1393.4,163.0539 A1,1 0 0 1 1394.4,164.0539 L1394.4,654.2055 A1,1 0 0 1 1393.4,655.2055 L13,655.2055 A1,1 0 0 1 12,654.2055 L12,154.2055 A1,1 0 0 1 13,153.2055" fill="none" style="stroke:#000000;stroke-width:0.6;"/><line style="stroke:#000000;stroke-width:0.6;" x1="12" x2="27.7793" y1="163.0539" y2="163.0539"/><text fill="#000000" font-family="sans-serif" font-size="5.6" font-weight="bold" lengthAdjust="spacing" textLength="10.5793" x="13.6" y="160.0484">mrp</text></g><!--cluster service--><g class="cluster" data-entity="service" data-source-line="1" data-uid="ent0005" id="cluster_service"><path d="M1222.6,234.4055 L1242.3074,234.4055 A1.5,1.5 0 0 1 1243.3074,235.4055 L1246.1074,244.2539 L1383.8,244.2539 A1,1 0 0 1 1384.8,245.2539 L1384.8,462.2055 A1,1 0 0 1 1383.8,463.2055 L1222.6,463.2055 A1,1 0 0 1 1221.6,462.2055 L1221.6,235.4055 A1,1 0 0 1 1222.6,234.4055" fill="none" style="stroke:#000000;stroke-width:0.6;"/><line style="stroke:#000000;stroke-width:0.6;" x1="1221.6" x2="1246.1074" y1="244.2539" y2="244.2539"/><text fill="#000000" font-family="sans-serif" font-size="5.6" font-weight="bold" lengthAdjust="spacing" textLength="19.3074" x="1223.2" y="241.2484">service</text></g><!--cluster model--><g class="cluster" data-entity="model" data-source-line="3" data-uid="ent0007" id="cluster_model"><path d="M945.8,204.6055 L962.691,204.6055 A1.5,1.5 0 0 1 963.691,205.6055 L966.491,214.4539 L1211,214.4539 A1,1 0 0 1 1212,215.4539 L1212,521.8055 A1,1 0 0 1 1211,522.8055 L945.8,522.8055 A1,1 0 0 1 944.8,521.8055 L944.8,205.6055 A1,1 0 0 1 945.8,204.6055" fill="none" style="stroke:#000000;stroke-width:0.6;"/><line style="stroke:#000000;stroke-width:0.6;" x1="944.8" x2="966.491" y1="214.4539" y2="214.4539"/><text fill="#000000" font-family="sans-serif" font-size="5.6" font-weight="bold" lengthAdjust="spacing" textLength="16.491" x="946.4" y="211.4484">model</text></g><!--cluster repository--><g class="cluster" data-entity="repository" data-source-line="9" data-uid="ent0009" id="cluster_repository"><path d="M647.8,230.8055 L675.5848,230.8055 A1.5,1.5 0 0 1 676.5848,231.8055 L679.3848,240.6539 L934.2,240.6539 A1,1 0 0 1 935.2,241.6539 L935.2,495.8055 A1,1 0 0 1 934.2,496.8055 L647.8,496.8055 A1,1 0 0 1 646.8,495.8055 L646.8,231.8055 A1,1 0 0 1 647.8,230.8055" fill="none" style="stroke:#000000;stroke-width:0.6;"/><line style="stroke:#000000;stroke-width:0.6;" x1="646.8" x2="679.3848" y1="240.6539" y2="240.6539"/><text fill="#000000" font-family="sans-serif" font-size="5.6" font-weight="bold" lengthAdjust="spacing" textLength="27.3848" x="648.4" y="237.6484">repository</text></g><!--cluster serverHandler--><g class="cluster" data-entity="serverHandler" data-source-line="18" data-uid="ent0011" id="cluster_serverHandler"><path d="M491.4,227.0055 L529.466,227.0055 A1.5,1.5 0 0 1 530.466,228.0055 L533.266,236.8539 L636.2,236.8539 A1,1 0 0 1 637.2,237.8539 L637.2,303.6055 A1,1 0 0 1 636.2,304.6055 L491.4,304.6055 A1,1 0 0 1 490.4,303.6055 L490.4,228.0055 A1,1 0 0 1 491.4,227.0055" fill="none" style="stroke:#000000;stroke-width:0.6;"/><line style="stroke:#000000;stroke-width:0.6;" x1="490.4" x2="533.266" y1="236.8539" y2="236.8539"/><text fill="#000000" font-family="sans-serif" font-size="5.6" font-weight="bold" lengthAdjust="spacing" textLength="37.666" x="492" y="233.8484">serverHandler</text></g><!--cluster utils--><g class="cluster" data-entity="utils" data-source-line="75" data-uid="ent0019" id="cluster_utils"><path d="M247,212.0055 L258.9117,212.0055 A1.5,1.5 0 0 1 259.9117,213.0055 L262.7117,221.8539 L479.8,221.8539 A1,1 0 0 1 480.8,222.8539 L480.8,318.6055 A1,1 0 0 1 479.8,319.6055 L247,319.6055 A1,1 0 0 1 246,318.6055 L246,213.0055 A1,1 0 0 1 247,212.0055" fill="none" style="stroke:#000000;stroke-width:0.6;"/><line style="stroke:#000000;stroke-width:0.6;" x1="246" x2="262.7117" y1="221.8539" y2="221.8539"/><text fill="#000000" font-family="sans-serif" font-size="5.6" font-weight="bold" lengthAdjust="spacing" textLength="11.5117" x="247.6" y="218.8484">utils</text></g><!--cluster dto--><g class="cluster" data-entity="dto" data-source-line="81" data-uid="ent0021" id="cluster_dto"><path d="M1210.6,532.4055 L1219.7063,532.4055 A1.5,1.5 0 0 1 1220.7063,533.4055 L1223.5063,542.2539 L1368.2,542.2539 A1,1 0 0 1 1369.2,543.2539 L1369.2,644.6055 A1,1 0 0 1 1368.2,645.6055 L1210.6,645.6055 A1,1 0 0 1 1209.6,644.6055 L1209.6,533.4055 A1,1 0 0 1 1210.6,532.4055" fill="none" style="stroke:#000000;stroke-width:0.6;"/><line style="stroke:#000000;stroke-width:0.6;" x1="1209.6" x2="1223.5063" y1="542.2539" y2="542.2539"/><text fill="#000000" font-family="sans-serif" font-size="5.6" font-weight="bold" lengthAdjust="spacing" textLength="8.7063" x="1211.2" y="539.2484">dto</text></g><!--cluster database--><g class="cluster" data-entity="database" data-source-line="177" data-uid="ent0033" id="cluster_database"><path d="M83,171.2055 L107.6785,171.2055 A1.5,1.5 0 0 1 108.6785,172.2055 L111.4785,181.0539 L235.4,181.0539 A1,1 0 0 1 236.4,182.0539 L236.4,359.4055 A1,1 0 0 1 235.4,360.4055 L83,360.4055 A1,1 0 0 1 82,359.4055 L82,172.2055 A1,1 0 0 1 83,171.2055" fill="none" style="stroke:#000000;stroke-width:0.6;"/><line style="stroke:#000000;stroke-width:0.6;" x1="82" x2="111.4785" y1="181.0539" y2="181.0539"/><text fill="#000000" font-family="sans-serif" font-size="5.6" font-weight="bold" lengthAdjust="spacing" textLength="24.2785" x="83.6" y="178.0484">database</text></g><!--cluster com--><g class="cluster" data-entity="com" data-source-line="204" data-uid="ent0036" id="cluster_com"><path d="M535.8,2.4055 L547.7145,2.4055 A1.5,1.5 0 0 1 548.7145,3.4055 L551.5145,12.2539 L647.4,12.2539 A1,1 0 0 1 648.4,13.2539 L648.4,124.6055 A1,1 0 0 1 647.4,125.6055 L535.8,125.6055 A1,1 0 0 1 534.8,124.6055 L534.8,3.4055 A1,1 0 0 1 535.8,2.4055" fill="none" style="stroke:#000000;stroke-width:0.6;"/><line style="stroke:#000000;stroke-width:0.6;" x1="534.8" x2="551.5145" y1="12.2539" y2="12.2539"/><text fill="#000000" font-family="sans-serif" font-size="5.6" font-weight="bold" lengthAdjust="spacing" textLength="11.5145" x="536.4" y="9.2484">com</text></g><!--cluster sun--><g class="cluster" data-entity="sun" data-source-line="204" data-uid="ent0037" id="cluster_sun"><path d="M545.4,20.4055 L555.7559,20.4055 A1.5,1.5 0 0 1 556.7559,21.4055 L559.5559,30.2539 L637.8,30.2539 A1,1 0 0 1 638.8,31.2539 L638.8,115.0055 A1,1 0 0 1 637.8,116.0055 L545.4,116.0055 A1,1 0 0 1 544.4,115.0055 L544.4,21.4055 A1,1 0 0 1 545.4,20.4055" fill="none" style="stroke:#000000;stroke-width:0.6;"/><line style="stroke:#000000;stroke-width:0.6;" x1="544.4" x2="559.5559" y1="30.2539" y2="30.2539"/><text fill="#000000" font-family="sans-serif" font-size="5.6" font-weight="bold" lengthAdjust="spacing" textLength="9.9559" x="546" y="27.2484">sun</text></g><!--cluster net--><g class="cluster" data-entity="net" data-source-line="204" data-uid="ent0038" id="cluster_net"><path d="M555,38.4055 L563.8,38.4055 A1.5,1.5 0 0 1 564.8,39.4055 L567.6,48.2539 L628.2,48.2539 A1,1 0 0 1 629.2,49.2539 L629.2,105.4055 A1,1 0 0 1 628.2,106.4055 L555,106.4055 A1,1 0 0 1 554,105.4055 L554,39.4055 A1,1 0 0 1 555,38.4055" fill="none" style="stroke:#000000;stroke-width:0.6;"/><line style="stroke:#000000;stroke-width:0.6;" x1="554" x2="567.6" y1="48.2539" y2="48.2539"/><text fill="#000000" font-family="sans-serif" font-size="5.6" font-weight="bold" lengthAdjust="spacing" textLength="8.4" x="555.6" y="45.2484">net</text></g><!--cluster httpserver--><g class="cluster" data-entity="httpserver" data-source-line="204" data-uid="ent0039" id="cluster_httpserver"><path d="M564.6,56.4055 L592.3875,56.4055 A1.5,1.5 0 0 1 593.3875,57.4055 L596.1875,66.2539 L618.6,66.2539 A1,1 0 0 1 619.6,67.2539 L619.6,95.8055 A1,1 0 0 1 618.6,96.8055 L564.6,96.8055 A1,1 0 0 1 563.6,95.8055 L563.6,57.4055 A1,1 0 0 1 564.6,56.4055" fill="none" style="stroke:#000000;stroke-width:0.6;"/><line style="stroke:#000000;stroke-width:0.6;" x1="563.6" x2="596.1875" y1="66.2539" y2="66.2539"/><text fill="#000000" font-family="sans-serif" font-size="5.6" font-weight="bold" lengthAdjust="spacing" textLength="27.3875" x="565.2" y="63.2484">httpserver</text></g><!--class Main--><g class="entity" data-entity="Main" data-source-line="24" data-uid="ent0012" id="entity_Main"><rect fill="#F1F1F1" height="26.6484" rx="1" ry="1" style="stroke:#181818;stroke-width:0.2;" width="55.8371" x="18.4" y="256.6055"/><ellipse cx="38.5496" cy="263.0055" fill="#ADD1B2" rx="4.4" ry="4.4" style="stroke:#181818;stroke-width:0.4;"/><path d="M39.6559,261.3555 Q39.7184,261.268 39.7934,261.2242 Q39.8684,261.1805 39.9559,261.1805 Q40.1059,261.1805 40.1996,261.2867 Q40.2934,261.3867 40.2934,261.6305 L40.2934,262.2117 Q40.2934,262.4555 40.1996,262.5617 Q40.1059,262.668 39.9559,262.668 Q39.8184,262.668 39.7371,262.5867 Q39.6559,262.5117 39.6121,262.3055 Q39.5934,262.1617 39.5184,262.0867 Q39.3871,261.9367 39.1434,261.8492 Q38.8996,261.7617 38.6496,261.7617 Q38.3434,261.7617 38.0871,261.893 Q37.8371,262.0242 37.6371,262.3242 Q37.4434,262.6242 37.4434,263.0367 L37.4434,263.4742 Q37.4434,263.968 37.7996,264.2992 Q38.1559,264.6242 38.7934,264.6242 Q39.1684,264.6242 39.4309,264.5242 Q39.5871,264.4617 39.7559,264.2867 Q39.8621,264.1805 39.9184,264.1492 Q39.9809,264.118 40.0621,264.118 Q40.1934,264.118 40.2934,264.2242 Q40.3996,264.3242 40.3996,264.4617 Q40.3996,264.5992 40.2621,264.7617 Q40.0621,264.993 39.7434,265.1242 Q39.3121,265.3055 38.7934,265.3055 Q38.1871,265.3055 37.7059,265.0555 Q37.3121,264.8555 37.0371,264.4305 Q36.7621,263.9992 36.7621,263.4867 L36.7621,263.0242 Q36.7621,262.493 37.0059,262.0367 Q37.2559,261.5742 37.6934,261.3305 Q38.1309,261.0805 38.6246,261.0805 Q38.9184,261.0805 39.1746,261.1492 Q39.4371,261.2117 39.6559,261.3555 Z " fill="#000000"/><text fill="#000000" font-family="sans-serif" font-size="5.6" lengthAdjust="spacing" textLength="12.1379" x="46.7496" y="265.3242">Main</text><line style="stroke:#181818;stroke-width:0.2;" x1="18.8" x2="73.8371" y1="269.4055" y2="269.4055"/><line style="stroke:#181818;stroke-width:0.2;" x1="18.8" x2="73.8371" y1="272.6055" y2="272.6055"/><ellipse cx="22.8" cy="278.5297" fill="#84BE84" rx="1.2" ry="1.2" style="stroke:#038048;stroke-width:0.4;"/><text fill="#000000" font-family="sans-serif" font-size="5.6" lengthAdjust="spacing" text-decoration="underline" textLength="45.4371" x="26.4" y="280.2484">void main(String[])</text></g><!--class RatingService--><g class="entity" data-entity="RatingService" data-source-line="1" data-uid="ent0002" id="entity_RatingService"><rect fill="#F1F1F1" height="19.2" rx="1" ry="1" style="stroke:#181818;stroke-width:0.2;" width="47.6605" x="1228.2" y="260.4055"/><ellipse cx="1234.2" cy="266.8055" fill="#ADD1B2" rx="4.4" ry="4.4" style="stroke:#181818;stroke-width:0.4;"/><path d="M1235.3063,265.1555 Q1235.3688,265.068 1235.4438,265.0242 Q1235.5188,264.9805 1235.6063,264.9805 Q1235.7563,264.9805 1235.85,265.0867 Q1235.9438,265.1867 1235.9438,265.4305 L1235.9438,266.0117 Q1235.9438,266.2555 1235.85,266.3617 Q1235.7563,266.468 1235.6063,266.468 Q1235.4688,266.468 1235.3875,266.3867 Q1235.3063,266.3117 1235.2625,266.1055 Q1235.2438,265.9617 1235.1688,265.8867 Q1235.0375,265.7367 1234.7938,265.6492 Q1234.55,265.5617 1234.3,265.5617 Q1233.9938,265.5617 1233.7375,265.693 Q1233.4875,265.8242 1233.2875,266.1242 Q1233.0938,266.4242 1233.0938,266.8367 L1233.0938,267.2742 Q1233.0938,267.768 1233.45,268.0992 Q1233.8063,268.4242 1234.4438,268.4242 Q1234.8188,268.4242 1235.0813,268.3242 Q1235.2375,268.2617 1235.4063,268.0867 Q1235.5125,267.9805 1235.5688,267.9492 Q1235.6313,267.918 1235.7125,267.918 Q1235.8438,267.918 1235.9438,268.0242 Q1236.05,268.1242 1236.05,268.2617 Q1236.05,268.3992 1235.9125,268.5617 Q1235.7125,268.793 1235.3938,268.9242 Q1234.9625,269.1055 1234.4438,269.1055 Q1233.8375,269.1055 1233.3563,268.8555 Q1232.9625,268.6555 1232.6875,268.2305 Q1232.4125,267.7992 1232.4125,267.2867 L1232.4125,266.8242 Q1232.4125,266.293 1232.6563,265.8367 Q1232.9063,265.3742 1233.3438,265.1305 Q1233.7813,264.8805 1234.275,264.8805 Q1234.5688,264.8805 1234.825,264.9492 Q1235.0875,265.0117 1235.3063,265.1555 Z " fill="#000000"/><text fill="#000000" font-family="sans-serif" font-size="5.6" lengthAdjust="spacing" textLength="34.8605" x="1239.8" y="269.1242">RatingService</text><line style="stroke:#181818;stroke-width:0.2;" x1="1228.6" x2="1275.4605" y1="273.2055" y2="273.2055"/><line style="stroke:#181818;stroke-width:0.2;" x1="1228.6" x2="1275.4605" y1="276.4055" y2="276.4055"/></g><!--class AuthService--><g class="entity" data-entity="AuthService" data-source-line="61" data-uid="ent0016" id="entity_AuthService"><rect fill="#F1F1F1" height="41.5453" rx="1" ry="1" style="stroke:#181818;stroke-width:0.2;" width="88.2066" x="1289.8" y="249.2055"/><ellipse cx="1317.1068" cy="255.6055" fill="#ADD1B2" rx="4.4" ry="4.4" style="stroke:#181818;stroke-width:0.4;"/><path d="M1318.2131,253.9555 Q1318.2756,253.868 1318.3506,253.8242 Q1318.4256,253.7805 1318.5131,253.7805 Q1318.6631,253.7805 1318.7568,253.8867 Q1318.8506,253.9867 1318.8506,254.2305 L1318.8506,254.8117 Q1318.8506,255.0555 1318.7568,255.1617 Q1318.6631,255.268 1318.5131,255.268 Q1318.3756,255.268 1318.2943,255.1867 Q1318.2131,255.1117 1318.1693,254.9055 Q1318.1506,254.7617 1318.0756,254.6867 Q1317.9443,254.5367 1317.7006,254.4492 Q1317.4568,254.3617 1317.2068,254.3617 Q1316.9006,254.3617 1316.6443,254.493 Q1316.3943,254.6242 1316.1943,254.9242 Q1316.0006,255.2242 1316.0006,255.6367 L1316.0006,256.0742 Q1316.0006,256.568 1316.3568,256.8992 Q1316.7131,257.2242 1317.3506,257.2242 Q1317.7256,257.2242 1317.9881,257.1242 Q1318.1443,257.0617 1318.3131,256.8867 Q1318.4193,256.7805 1318.4756,256.7492 Q1318.5381,256.718 1318.6193,256.718 Q1318.7506,256.718 1318.8506,256.8242 Q1318.9568,256.9242 1318.9568,257.0617 Q1318.9568,257.1992 1318.8193,257.3617 Q1318.6193,257.593 1318.3006,257.7242 Q1317.8693,257.9055 1317.3506,257.9055 Q1316.7443,257.9055 1316.2631,257.6555 Q1315.8693,257.4555 1315.5943,257.0305 Q1315.3193,256.5992 1315.3193,256.0867 L1315.3193,255.6242 Q1315.3193,255.093 1315.5631,254.6367 Q1315.8131,254.1742 1316.2506,253.9305 Q1316.6881,253.6805 1317.1818,253.6805 Q1317.4756,253.6805 1317.7318,253.7492 Q1317.9943,253.8117 1318.2131,253.9555 Z " fill="#000000"/><text fill="#000000" font-family="sans-serif" font-size="5.6" lengthAdjust="spacing" textLength="30.193" x="1325.3068" y="257.9242">AuthService</text><line style="stroke:#181818;stroke-width:0.2;" x1="1290.2" x2="1377.6066" y1="262.0055" y2="262.0055"/><rect fill="none" height="2.4" style="stroke:#C82930;stroke-width:0.4;" width="2.4" x="1293" y="266.7297"/><text fill="#000000" font-family="sans-serif" font-size="5.6" lengthAdjust="spacing" textLength="77.8066" x="1297.8" y="269.6484">UserRepository userRepository</text><line style="stroke:#181818;stroke-width:0.2;" x1="1290.2" x2="1377.6066" y1="272.6539" y2="272.6539"/><ellipse cx="1294.2" cy="278.5781" fill="#84BE84" rx="1.2" ry="1.2" style="stroke:#038048;stroke-width:0.4;"/><text fill="#000000" font-family="sans-serif" font-size="5.6" lengthAdjust="spacing" textLength="69.4094" x="1297.8" y="280.2969">void register(HttpExchange)</text><ellipse cx="1294.2" cy="286.0266" fill="#84BE84" rx="1.2" ry="1.2" style="stroke:#038048;stroke-width:0.4;"/><text fill="#000000" font-family="sans-serif" font-size="5.6" lengthAdjust="spacing" textLength="62.568" x="1297.8" y="287.7453">void login(HttpExchange)</text></g><!--class MediaEntryService--><g class="entity" data-entity="MediaEntryService" data-source-line="107" data-uid="ent0024" id="entity_MediaEntryService"><rect fill="#F1F1F1" height="19.2" rx="1" ry="1" style="stroke:#181818;stroke-width:0.2;" width="59.7957" x="1228.2" y="437.6055"/><ellipse cx="1234.2" cy="444.0055" fill="#ADD1B2" rx="4.4" ry="4.4" style="stroke:#181818;stroke-width:0.4;"/><path d="M1235.3063,442.3555 Q1235.3688,442.268 1235.4438,442.2242 Q1235.5188,442.1805 1235.6063,442.1805 Q1235.7563,442.1805 1235.85,442.2867 Q1235.9438,442.3867 1235.9438,442.6305 L1235.9438,443.2117 Q1235.9438,443.4555 1235.85,443.5617 Q1235.7563,443.668 1235.6063,443.668 Q1235.4688,443.668 1235.3875,443.5867 Q1235.3063,443.5117 1235.2625,443.3055 Q1235.2438,443.1617 1235.1688,443.0867 Q1235.0375,442.9367 1234.7938,442.8492 Q1234.55,442.7617 1234.3,442.7617 Q1233.9938,442.7617 1233.7375,442.893 Q1233.4875,443.0242 1233.2875,443.3242 Q1233.0938,443.6242 1233.0938,444.0367 L1233.0938,444.4742 Q1233.0938,444.968 1233.45,445.2992 Q1233.8063,445.6242 1234.4438,445.6242 Q1234.8188,445.6242 1235.0813,445.5242 Q1235.2375,445.4617 1235.4063,445.2867 Q1235.5125,445.1805 1235.5688,445.1492 Q1235.6313,445.118 1235.7125,445.118 Q1235.8438,445.118 1235.9438,445.2242 Q1236.05,445.3242 1236.05,445.4617 Q1236.05,445.5992 1235.9125,445.7617 Q1235.7125,445.993 1235.3938,446.1242 Q1234.9625,446.3055 1234.4438,446.3055 Q1233.8375,446.3055 1233.3563,446.0555 Q1232.9625,445.8555 1232.6875,445.4305 Q1232.4125,444.9992 1232.4125,444.4867 L1232.4125,444.0242 Q1232.4125,443.493 1232.6563,443.0367 Q1232.9063,442.5742 1233.3438,442.3305 Q1233.7813,442.0805 1234.275,442.0805 Q1234.5688,442.0805 1234.825,442.1492 Q1235.0875,442.2117 1235.3063,442.3555 Z " fill="#000000"/><text fill="#000000" font-family="sans-serif" font-size="5.6" lengthAdjust="spacing" textLength="46.9957" x="1239.8" y="446.3242">MediaEntryService</text><line style="stroke:#181818;stroke-width:0.2;" x1="1228.6" x2="1287.5957" y1="450.4055" y2="450.4055"/><line style="stroke:#181818;stroke-width:0.2;" x1="1228.6" x2="1287.5957" y1="453.6055" y2="453.6055"/></g><!--class UserService--><g class="entity" data-entity="UserService" data-source-line="109" data-uid="ent0025" id="entity_UserService"><rect fill="#F1F1F1" height="19.2" rx="1" ry="1" style="stroke:#181818;stroke-width:0.2;" width="43.2965" x="1302" y="437.6055"/><ellipse cx="1308" cy="444.0055" fill="#ADD1B2" rx="4.4" ry="4.4" style="stroke:#181818;stroke-width:0.4;"/><path d="M1309.1063,442.3555 Q1309.1688,442.268 1309.2438,442.2242 Q1309.3188,442.1805 1309.4063,442.1805 Q1309.5563,442.1805 1309.65,442.2867 Q1309.7438,442.3867 1309.7438,442.6305 L1309.7438,443.2117 Q1309.7438,443.4555 1309.65,443.5617 Q1309.5563,443.668 1309.4063,443.668 Q1309.2688,443.668 1309.1875,443.5867 Q1309.1063,443.5117 1309.0625,443.3055 Q1309.0438,443.1617 1308.9688,443.0867 Q1308.8375,442.9367 1308.5938,442.8492 Q1308.35,442.7617 1308.1,442.7617 Q1307.7938,442.7617 1307.5375,442.893 Q1307.2875,443.0242 1307.0875,443.3242 Q1306.8938,443.6242 1306.8938,444.0367 L1306.8938,444.4742 Q1306.8938,444.968 1307.25,445.2992 Q1307.6063,445.6242 1308.2438,445.6242 Q1308.6188,445.6242 1308.8813,445.5242 Q1309.0375,445.4617 1309.2063,445.2867 Q1309.3125,445.1805 1309.3688,445.1492 Q1309.4313,445.118 1309.5125,445.118 Q1309.6438,445.118 1309.7438,445.2242 Q1309.85,445.3242 1309.85,445.4617 Q1309.85,445.5992 1309.7125,445.7617 Q1309.5125,445.993 1309.1938,446.1242 Q1308.7625,446.3055 1308.2438,446.3055 Q1307.6375,446.3055 1307.1563,446.0555 Q1306.7625,445.8555 1306.4875,445.4305 Q1306.2125,444.9992 1306.2125,444.4867 L1306.2125,444.0242 Q1306.2125,443.493 1306.4563,443.0367 Q1306.7063,442.5742 1307.1438,442.3305 Q1307.5813,442.0805 1308.075,442.0805 Q1308.3688,442.0805 1308.625,442.1492 Q1308.8875,442.2117 1309.1063,442.3555 Z " fill="#000000"/><text fill="#000000" font-family="sans-serif" font-size="5.6" lengthAdjust="spacing" textLength="30.4965" x="1313.6" y="446.3242">UserService</text><line style="stroke:#181818;stroke-width:0.2;" x1="1302.4" x2="1344.8965" y1="450.4055" y2="450.4055"/><line style="stroke:#181818;stroke-width:0.2;" x1="1302.4" x2="1344.8965" y1="453.6055" y2="453.6055"/></g><!--class MediaEntryType--><g class="entity" data-entity="MediaEntryType" data-source-line="3" data-uid="ent0006" id="entity_MediaEntryType"><rect fill="#F1F1F1" height="41.5453" rx="1" ry="1" style="stroke:#181818;stroke-width:0.2;" width="53.5723" x="976.4" y="249.2055"/><ellipse cx="982.4" cy="255.6055" fill="#EB937F" rx="4.4" ry="4.4" style="stroke:#181818;stroke-width:0.4;"/><path d="M981.9438,255.9242 L981.9438,256.9242 L983.675,256.9242 L983.675,256.5555 Q983.675,256.3117 983.7688,256.2055 Q983.8688,256.0992 984.0188,256.0992 Q984.1688,256.0992 984.2625,256.2055 Q984.3563,256.3117 984.3563,256.5555 L984.3563,257.6055 L981.1563,257.6055 Q980.9063,257.6055 980.8,257.5117 Q980.7,257.418 980.7,257.2617 Q980.7,257.1117 980.8063,257.018 Q980.9125,256.9242 981.1563,256.9242 L981.2625,256.9242 L981.2625,254.2617 L981.1563,254.2617 Q980.9063,254.2617 980.8,254.168 Q980.7,254.0742 980.7,253.918 Q980.7,253.768 980.8,253.6742 Q980.9063,253.5805 981.1563,253.5805 L984.2063,253.5805 L984.2063,254.618 Q984.2063,254.8617 984.1125,254.968 Q984.025,255.068 983.8688,255.068 Q983.7188,255.068 983.625,254.968 Q983.5313,254.8617 983.5313,254.618 L983.5313,254.2617 L981.9438,254.2617 L981.9438,255.243 L982.5375,255.243 Q982.5375,254.9805 982.5875,254.9055 Q982.6938,254.743 982.8813,254.743 Q983.0313,254.743 983.125,254.8492 Q983.2188,254.9492 983.2188,255.193 L983.2188,255.9805 Q983.2188,256.1992 983.1688,256.2742 Q983.0625,256.4305 982.8813,256.4305 Q982.6938,256.4305 982.5875,256.268 Q982.5375,256.193 982.5375,255.9242 L981.9438,255.9242 Z " fill="#000000"/><text fill="#000000" font-family="sans-serif" font-size="5.6" lengthAdjust="spacing" textLength="40.7723" x="988" y="257.9242">MediaEntryType</text><line style="stroke:#181818;stroke-width:0.2;" x1="976.8" x2="1029.5723" y1="262.0055" y2="262.0055"/><ellipse cx="980.8" cy="267.9297" fill="none" rx="1.2" ry="1.2" style="stroke:#038048;stroke-width:0.4;"/><text fill="#000000" font-family="sans-serif" font-size="5.6" lengthAdjust="spacing" textLength="18.0469" x="984.4" y="269.6484">MOVIE</text><ellipse cx="980.8" cy="275.3781" fill="none" rx="1.2" ry="1.2" style="stroke:#038048;stroke-width:0.4;"/><text fill="#000000" font-family="sans-serif" font-size="5.6" lengthAdjust="spacing" textLength="20.5406" x="984.4" y="277.0969">SERIES</text><ellipse cx="980.8" cy="282.8266" fill="none" rx="1.2" ry="1.2" style="stroke:#038048;stroke-width:0.4;"/><text fill="#000000" font-family="sans-serif" font-size="5.6" lengthAdjust="spacing" textLength="16.491" x="984.4" y="284.5453">GAME</text><line style="stroke:#181818;stroke-width:0.2;" x1="976.8" x2="1029.5723" y1="287.5508" y2="287.5508"/></g><!--class Token--><g class="entity" data-entity="Token" data-source-line="37" data-uid="ent0014" id="entity_Token"><rect fill="#F1F1F1" height="63.8906" rx="1" ry="1" style="stroke:#181818;stroke-width:0.2;" width="76.3777" x="1044.2" y="238.0055"/><ellipse cx="1072.9068" cy="244.4055" fill="#ADD1B2" rx="4.4" ry="4.4" style="stroke:#181818;stroke-width:0.4;"/><path d="M1074.0131,242.7555 Q1074.0756,242.668 1074.1506,242.6242 Q1074.2256,242.5805 1074.3131,242.5805 Q1074.4631,242.5805 1074.5568,242.6867 Q1074.6506,242.7867 1074.6506,243.0305 L1074.6506,243.6117 Q1074.6506,243.8555 1074.5568,243.9617 Q1074.4631,244.068 1074.3131,244.068 Q1074.1756,244.068 1074.0943,243.9867 Q1074.0131,243.9117 1073.9693,243.7055 Q1073.9506,243.5617 1073.8756,243.4867 Q1073.7443,243.3367 1073.5006,243.2492 Q1073.2568,243.1617 1073.0068,243.1617 Q1072.7006,243.1617 1072.4443,243.293 Q1072.1943,243.4242 1071.9943,243.7242 Q1071.8006,244.0242 1071.8006,244.4367 L1071.8006,244.8742 Q1071.8006,245.368 1072.1568,245.6992 Q1072.5131,246.0242 1073.1506,246.0242 Q1073.5256,246.0242 1073.7881,245.9242 Q1073.9443,245.8617 1074.1131,245.6867 Q1074.2193,245.5805 1074.2756,245.5492 Q1074.3381,245.518 1074.4193,245.518 Q1074.5506,245.518 1074.6506,245.6242 Q1074.7568,245.7242 1074.7568,245.8617 Q1074.7568,245.9992 1074.6193,246.1617 Q1074.4193,246.393 1074.1006,246.5242 Q1073.6693,246.7055 1073.1506,246.7055 Q1072.5443,246.7055 1072.0631,246.4555 Q1071.6693,246.2555 1071.3943,245.8305 Q1071.1193,245.3992 1071.1193,244.8867 L1071.1193,244.4242 Q1071.1193,243.893 1071.3631,243.4367 Q1071.6131,242.9742 1072.0506,242.7305 Q1072.4881,242.4805 1072.9818,242.4805 Q1073.2756,242.4805 1073.5318,242.5492 Q1073.7943,242.6117 1074.0131,242.7555 Z " fill="#000000"/><text fill="#000000" font-family="sans-serif" font-size="5.6" lengthAdjust="spacing" textLength="15.5641" x="1081.1068" y="246.7242">Token</text><line style="stroke:#181818;stroke-width:0.2;" x1="1044.6" x2="1120.1777" y1="250.8055" y2="250.8055"/><rect fill="none" height="2.4" style="stroke:#C82930;stroke-width:0.4;" width="2.4" x="1047.4" y="255.5297"/><text fill="#000000" font-family="sans-serif" font-size="5.6" lengthAdjust="spacing" textLength="29.884" x="1052.2" y="258.4484">String token</text><rect fill="none" height="2.4" style="stroke:#C82930;stroke-width:0.4;" width="2.4" x="1047.4" y="262.9781"/><text fill="#000000" font-family="sans-serif" font-size="5.6" lengthAdjust="spacing" textLength="30.8082" x="1052.2" y="265.8969">UUID userId</text><rect fill="none" height="2.4" style="stroke:#C82930;stroke-width:0.4;" width="2.4" x="1047.4" y="270.4266"/><text fill="#000000" font-family="sans-serif" font-size="5.6" lengthAdjust="spacing" textLength="53.2191" x="1052.2" y="273.3453">Timestamp createdAt</text><line style="stroke:#181818;stroke-width:0.2;" x1="1044.6" x2="1120.1777" y1="276.3508" y2="276.3508"/><ellipse cx="1048.6" cy="282.275" fill="#84BE84" rx="1.2" ry="1.2" style="stroke:#038048;stroke-width:0.4;"/><text fill="#000000" font-family="sans-serif" font-size="5.6" lengthAdjust="spacing" textLength="43.2633" x="1052.2" y="283.9938">String getToken()</text><ellipse cx="1048.6" cy="289.7234" fill="#84BE84" rx="1.2" ry="1.2" style="stroke:#038048;stroke-width:0.4;"/><text fill="#000000" font-family="sans-serif" font-size="5.6" lengthAdjust="spacing" textLength="43.2523" x="1052.2" y="291.4422">UUID getUserId()</text><ellipse cx="1048.6" cy="297.1719" fill="#84BE84" rx="1.2" ry="1.2" style="stroke:#038048;stroke-width:0.4;"/><text fill="#000000" font-family="sans-serif" font-size="5.6" lengthAdjust="spacing" textLength="65.9777" x="1052.2" y="298.8906">Timestamp getCreatedAt()</text></g><!--class Genre--><g class="entity" data-entity="Genre" data-source-line="47" data-uid="ent0015" id="entity_Genre"><rect fill="#F1F1F1" height="101.1328" rx="1" ry="1" style="stroke:#181818;stroke-width:0.2;" width="54.2676" x="1134.8" y="219.4055"/><ellipse cx="1152.4566" cy="225.8055" fill="#EB937F" rx="4.4" ry="4.4" style="stroke:#181818;stroke-width:0.4;"/><path d="M1152.0003,226.1242 L1152.0003,227.1242 L1153.7316,227.1242 L1153.7316,226.7555 Q1153.7316,226.5117 1153.8253,226.4055 Q1153.9253,226.2992 1154.0753,226.2992 Q1154.2253,226.2992 1154.3191,226.4055 Q1154.4128,226.5117 1154.4128,226.7555 L1154.4128,227.8055 L1151.2128,227.8055 Q1150.9628,227.8055 1150.8566,227.7117 Q1150.7566,227.618 1150.7566,227.4617 Q1150.7566,227.3117 1150.8628,227.218 Q1150.9691,227.1242 1151.2128,227.1242 L1151.3191,227.1242 L1151.3191,224.4617 L1151.2128,224.4617 Q1150.9628,224.4617 1150.8566,224.368 Q1150.7566,224.2742 1150.7566,224.118 Q1150.7566,223.968 1150.8566,223.8742 Q1150.9628,223.7805 1151.2128,223.7805 L1154.2628,223.7805 L1154.2628,224.818 Q1154.2628,225.0617 1154.1691,225.168 Q1154.0816,225.268 1153.9253,225.268 Q1153.7753,225.268 1153.6816,225.168 Q1153.5878,225.0617 1153.5878,224.818 L1153.5878,224.4617 L1152.0003,224.4617 L1152.0003,225.443 L1152.5941,225.443 Q1152.5941,225.1805 1152.6441,225.1055 Q1152.7503,224.943 1152.9378,224.943 Q1153.0878,224.943 1153.1816,225.0492 Q1153.2753,225.1492 1153.2753,225.393 L1153.2753,226.1805 Q1153.2753,226.3992 1153.2253,226.4742 Q1153.1191,226.6305 1152.9378,226.6305 Q1152.7503,226.6305 1152.6441,226.468 Q1152.5941,226.393 1152.5941,226.1242 L1152.0003,226.1242 Z " fill="#000000"/><text fill="#000000" font-family="sans-serif" font-size="5.6" lengthAdjust="spacing" textLength="15.5641" x="1160.6469" y="228.1242">Genre</text><line style="stroke:#181818;stroke-width:0.2;" x1="1135.2" x2="1188.6676" y1="232.2055" y2="232.2055"/><ellipse cx="1139.2" cy="238.1297" fill="none" rx="1.2" ry="1.2" style="stroke:#038048;stroke-width:0.4;"/><text fill="#000000" font-family="sans-serif" font-size="5.6" lengthAdjust="spacing" textLength="21.1559" x="1142.8" y="239.8484">ACTION</text><ellipse cx="1139.2" cy="245.5781" fill="none" rx="1.2" ry="1.2" style="stroke:#038048;stroke-width:0.4;"/><text fill="#000000" font-family="sans-serif" font-size="5.6" lengthAdjust="spacing" textLength="34.5379" x="1142.8" y="247.2969">ADVENTURE</text><ellipse cx="1139.2" cy="253.0266" fill="none" rx="1.2" ry="1.2" style="stroke:#038048;stroke-width:0.4;"/><text fill="#000000" font-family="sans-serif" font-size="5.6" lengthAdjust="spacing" textLength="24.5793" x="1142.8" y="254.7453">COMEDY</text><ellipse cx="1139.2" cy="260.475" fill="none" rx="1.2" ry="1.2" style="stroke:#038048;stroke-width:0.4;"/><text fill="#000000" font-family="sans-serif" font-size="5.6" lengthAdjust="spacing" textLength="20.2234" x="1142.8" y="262.1938">DRAMA</text><ellipse cx="1139.2" cy="267.9234" fill="none" rx="1.2" ry="1.2" style="stroke:#038048;stroke-width:0.4;"/><text fill="#000000" font-family="sans-serif" font-size="5.6" lengthAdjust="spacing" textLength="27.073" x="1142.8" y="269.6422">THRILLER</text><ellipse cx="1139.2" cy="275.3719" fill="none" rx="1.2" ry="1.2" style="stroke:#038048;stroke-width:0.4;"/><text fill="#000000" font-family="sans-serif" font-size="5.6" lengthAdjust="spacing" textLength="17.4262" x="1142.8" y="277.0906">SCI_FI</text><ellipse cx="1139.2" cy="282.8203" fill="none" rx="1.2" ry="1.2" style="stroke:#038048;stroke-width:0.4;"/><text fill="#000000" font-family="sans-serif" font-size="5.6" lengthAdjust="spacing" textLength="24.8883" x="1142.8" y="284.5391">HORROR</text><ellipse cx="1139.2" cy="290.2688" fill="none" rx="1.2" ry="1.2" style="stroke:#038048;stroke-width:0.4;"/><text fill="#000000" font-family="sans-serif" font-size="5.6" lengthAdjust="spacing" textLength="25.8262" x="1142.8" y="291.9875">FANTASY</text><ellipse cx="1139.2" cy="297.7172" fill="none" rx="1.2" ry="1.2" style="stroke:#038048;stroke-width:0.4;"/><text fill="#000000" font-family="sans-serif" font-size="5.6" lengthAdjust="spacing" textLength="28.6234" x="1142.8" y="299.4359">ROMANCE</text><ellipse cx="1139.2" cy="305.1656" fill="none" rx="1.2" ry="1.2" style="stroke:#038048;stroke-width:0.4;"/><text fill="#000000" font-family="sans-serif" font-size="5.6" lengthAdjust="spacing" textLength="43.8676" x="1142.8" y="306.8844">DOCUMENTARY</text><ellipse cx="1139.2" cy="312.6141" fill="none" rx="1.2" ry="1.2" style="stroke:#038048;stroke-width:0.4;"/><text fill="#000000" font-family="sans-serif" font-size="5.6" lengthAdjust="spacing" textLength="31.1117" x="1142.8" y="314.3328">ANIMATION</text><line style="stroke:#181818;stroke-width:0.2;" x1="1135.2" x2="1188.6676" y1="317.3383" y2="317.3383"/></g><!--class User--><g class="entity" data-entity="User" data-source-line="97" data-uid="ent0023" id="entity_User"><rect fill="#F1F1F1" height="63.8906" rx="1" ry="1" style="stroke:#181818;stroke-width:0.2;" width="72.0383" x="951.2" y="415.2055"/><ellipse cx="979.6074" cy="421.6055" fill="#ADD1B2" rx="4.4" ry="4.4" style="stroke:#181818;stroke-width:0.4;"/><path d="M980.7137,419.9555 Q980.7762,419.868 980.8512,419.8242 Q980.9262,419.7805 981.0137,419.7805 Q981.1637,419.7805 981.2574,419.8867 Q981.3512,419.9867 981.3512,420.2305 L981.3512,420.8117 Q981.3512,421.0555 981.2574,421.1617 Q981.1637,421.268 981.0137,421.268 Q980.8762,421.268 980.7949,421.1867 Q980.7137,421.1117 980.6699,420.9055 Q980.6512,420.7617 980.5762,420.6867 Q980.4449,420.5367 980.2012,420.4492 Q979.9574,420.3617 979.7074,420.3617 Q979.4012,420.3617 979.1449,420.493 Q978.8949,420.6242 978.6949,420.9242 Q978.5012,421.2242 978.5012,421.6367 L978.5012,422.0742 Q978.5012,422.568 978.8574,422.8992 Q979.2137,423.2242 979.8512,423.2242 Q980.2262,423.2242 980.4887,423.1242 Q980.6449,423.0617 980.8137,422.8867 Q980.9199,422.7805 980.9762,422.7492 Q981.0387,422.718 981.1199,422.718 Q981.2512,422.718 981.3512,422.8242 Q981.4574,422.9242 981.4574,423.0617 Q981.4574,423.1992 981.3199,423.3617 Q981.1199,423.593 980.8012,423.7242 Q980.3699,423.9055 979.8512,423.9055 Q979.2449,423.9055 978.7637,423.6555 Q978.3699,423.4555 978.0949,423.0305 Q977.8199,422.5992 977.8199,422.0867 L977.8199,421.6242 Q977.8199,421.093 978.0637,420.6367 Q978.3137,420.1742 978.7512,419.9305 Q979.1887,419.6805 979.6824,419.6805 Q979.9762,419.6805 980.2324,419.7492 Q980.4949,419.8117 980.7137,419.9555 Z " fill="#000000"/><text fill="#000000" font-family="sans-serif" font-size="5.6" lengthAdjust="spacing" textLength="11.8234" x="987.8074" y="423.9242">User</text><line style="stroke:#181818;stroke-width:0.2;" x1="951.6" x2="1022.8383" y1="428.0055" y2="428.0055"/><rect fill="none" height="2.4" style="stroke:#C82930;stroke-width:0.4;" width="2.4" x="954.4" y="432.7297"/><text fill="#000000" font-family="sans-serif" font-size="5.6" lengthAdjust="spacing" textLength="30.8082" x="959.2" y="435.6484">UUID userId</text><rect fill="none" height="2.4" style="stroke:#C82930;stroke-width:0.4;" width="2.4" x="954.4" y="440.1781"/><text fill="#000000" font-family="sans-serif" font-size="5.6" lengthAdjust="spacing" textLength="41.0867" x="959.2" y="443.0969">String username</text><rect fill="none" height="2.4" style="stroke:#C82930;stroke-width:0.4;" width="2.4" x="954.4" y="447.6266"/><text fill="#000000" font-family="sans-serif" font-size="5.6" lengthAdjust="spacing" textLength="61.6383" x="959.2" y="450.5453">String password_hashed</text><line style="stroke:#181818;stroke-width:0.2;" x1="951.6" x2="1022.8383" y1="453.5508" y2="453.5508"/><ellipse cx="955.6" cy="459.475" fill="#84BE84" rx="1.2" ry="1.2" style="stroke:#038048;stroke-width:0.4;"/><text fill="#000000" font-family="sans-serif" font-size="5.6" lengthAdjust="spacing" textLength="53.5309" x="959.2" y="461.1938">String getUsername()</text><ellipse cx="955.6" cy="466.9234" fill="#84BE84" rx="1.2" ry="1.2" style="stroke:#038048;stroke-width:0.4;"/><text fill="#000000" font-family="sans-serif" font-size="5.6" lengthAdjust="spacing" textLength="43.2523" x="959.2" y="468.6422">UUID getUserId()</text><ellipse cx="955.6" cy="474.3719" fill="#84BE84" rx="1.2" ry="1.2" style="stroke:#038048;stroke-width:0.4;"/><text fill="#000000" font-family="sans-serif" font-size="5.6" lengthAdjust="spacing" textLength="52.2867" x="959.2" y="476.0906">String getPassword()</text></g><!--class Rating--><g class="entity" data-entity="Rating" data-source-line="111" data-uid="ent0026" id="entity_Rating"><rect fill="#F1F1F1" height="138.375" rx="1" ry="1" style="stroke:#181818;stroke-width:0.2;" width="80.4301" x="1037.4" y="378.0055"/><ellipse cx="1067.8213" cy="384.4055" fill="#ADD1B2" rx="4.4" ry="4.4" style="stroke:#181818;stroke-width:0.4;"/><path d="M1068.9275,382.7555 Q1068.99,382.668 1069.065,382.6242 Q1069.14,382.5805 1069.2275,382.5805 Q1069.3775,382.5805 1069.4713,382.6867 Q1069.565,382.7867 1069.565,383.0305 L1069.565,383.6117 Q1069.565,383.8555 1069.4713,383.9617 Q1069.3775,384.068 1069.2275,384.068 Q1069.09,384.068 1069.0088,383.9867 Q1068.9275,383.9117 1068.8838,383.7055 Q1068.865,383.5617 1068.79,383.4867 Q1068.6588,383.3367 1068.415,383.2492 Q1068.1713,383.1617 1067.9213,383.1617 Q1067.615,383.1617 1067.3588,383.293 Q1067.1088,383.4242 1066.9088,383.7242 Q1066.715,384.0242 1066.715,384.4367 L1066.715,384.8742 Q1066.715,385.368 1067.0713,385.6992 Q1067.4275,386.0242 1068.065,386.0242 Q1068.44,386.0242 1068.7025,385.9242 Q1068.8588,385.8617 1069.0275,385.6867 Q1069.1338,385.5805 1069.19,385.5492 Q1069.2525,385.518 1069.3338,385.518 Q1069.465,385.518 1069.565,385.6242 Q1069.6713,385.7242 1069.6713,385.8617 Q1069.6713,385.9992 1069.5338,386.1617 Q1069.3338,386.393 1069.015,386.5242 Q1068.5838,386.7055 1068.065,386.7055 Q1067.4588,386.7055 1066.9775,386.4555 Q1066.5838,386.2555 1066.3088,385.8305 Q1066.0338,385.3992 1066.0338,384.8867 L1066.0338,384.4242 Q1066.0338,383.893 1066.2775,383.4367 Q1066.5275,382.9742 1066.965,382.7305 Q1067.4025,382.4805 1067.8963,382.4805 Q1068.19,382.4805 1068.4463,382.5492 Q1068.7088,382.6117 1068.9275,382.7555 Z " fill="#000000"/><text fill="#000000" font-family="sans-serif" font-size="5.6" lengthAdjust="spacing" textLength="16.1875" x="1076.0213" y="386.7242">Rating</text><line style="stroke:#181818;stroke-width:0.2;" x1="1037.8" x2="1117.4301" y1="390.8055" y2="390.8055"/><rect fill="none" height="2.4" style="stroke:#C82930;stroke-width:0.4;" width="2.4" x="1040.6" y="395.5297"/><text fill="#000000" font-family="sans-serif" font-size="5.6" lengthAdjust="spacing" textLength="19.6027" x="1045.4" y="398.4484">UUID id</text><rect fill="none" height="2.4" style="stroke:#C82930;stroke-width:0.4;" width="2.4" x="1040.6" y="402.9781"/><text fill="#000000" font-family="sans-serif" font-size="5.6" lengthAdjust="spacing" textLength="30.8082" x="1045.4" y="405.8969">UUID userId</text><rect fill="none" height="2.4" style="stroke:#C82930;stroke-width:0.4;" width="2.4" x="1040.6" y="410.4266"/><text fill="#000000" font-family="sans-serif" font-size="5.6" lengthAdjust="spacing" textLength="48.2371" x="1045.4" y="413.3453">UUID mediaEntryId</text><rect fill="none" height="2.4" style="stroke:#C82930;stroke-width:0.4;" width="2.4" x="1040.6" y="417.875"/><text fill="#000000" font-family="sans-serif" font-size="5.6" lengthAdjust="spacing" textLength="25.2055" x="1045.4" y="420.7938">int starsCt</text><rect fill="none" height="2.4" style="stroke:#C82930;stroke-width:0.4;" width="2.4" x="1040.6" y="425.3234"/><text fill="#000000" font-family="sans-serif" font-size="5.6" lengthAdjust="spacing" textLength="39.2137" x="1045.4" y="428.2422">String comment</text><rect fill="none" height="2.4" style="stroke:#C82930;stroke-width:0.4;" width="2.4" x="1040.6" y="432.7719"/><text fill="#000000" font-family="sans-serif" font-size="5.6" lengthAdjust="spacing" textLength="66.3004" x="1045.4" y="435.6906">boolean isCommentVisible</text><rect fill="none" height="2.4" style="stroke:#C82930;stroke-width:0.4;" width="2.4" x="1040.6" y="440.2203"/><text fill="#000000" font-family="sans-serif" font-size="5.6" lengthAdjust="spacing" textLength="65.0453" x="1045.4" y="443.1391">LocalDateTime timestamp</text><rect fill="none" height="2.4" style="stroke:#C82930;stroke-width:0.4;" width="2.4" x="1040.6" y="447.6688"/><text fill="#000000" font-family="sans-serif" font-size="5.6" lengthAdjust="spacing" textLength="46.6867" x="1045.4" y="450.5875">List&lt;User&gt; likedBy</text><line style="stroke:#181818;stroke-width:0.2;" x1="1037.8" x2="1117.4301" y1="453.593" y2="453.593"/><ellipse cx="1041.8" cy="459.5172" fill="#84BE84" rx="1.2" ry="1.2" style="stroke:#038048;stroke-width:0.4;"/><text fill="#000000" font-family="sans-serif" font-size="5.6" lengthAdjust="spacing" textLength="31.4289" x="1045.4" y="461.2359">UUID getId()</text><ellipse cx="1041.8" cy="466.9656" fill="#84BE84" rx="1.2" ry="1.2" style="stroke:#038048;stroke-width:0.4;"/><text fill="#000000" font-family="sans-serif" font-size="5.6" lengthAdjust="spacing" textLength="43.2523" x="1045.4" y="468.6844">UUID getUserId()</text><ellipse cx="1041.8" cy="474.4141" fill="#84BE84" rx="1.2" ry="1.2" style="stroke:#038048;stroke-width:0.4;"/><text fill="#000000" font-family="sans-serif" font-size="5.6" lengthAdjust="spacing" textLength="59.7516" x="1045.4" y="476.1328">UUID getMediaEntryId()</text><ellipse cx="1041.8" cy="481.8625" fill="#84BE84" rx="1.2" ry="1.2" style="stroke:#038048;stroke-width:0.4;"/><text fill="#000000" font-family="sans-serif" font-size="5.6" lengthAdjust="spacing" textLength="37.6551" x="1045.4" y="483.5813">int getStarsCt()</text><ellipse cx="1041.8" cy="489.3109" fill="#84BE84" rx="1.2" ry="1.2" style="stroke:#038048;stroke-width:0.4;"/><text fill="#000000" font-family="sans-serif" font-size="5.6" lengthAdjust="spacing" textLength="51.9723" x="1045.4" y="491.0297">String getComment()</text><ellipse cx="1041.8" cy="496.7594" fill="#84BE84" rx="1.2" ry="1.2" style="stroke:#038048;stroke-width:0.4;"/><text fill="#000000" font-family="sans-serif" font-size="5.6" lengthAdjust="spacing" textLength="70.0301" x="1045.4" y="498.4781">boolean isCommentVisible()</text><ellipse cx="1041.8" cy="504.2078" fill="#84BE84" rx="1.2" ry="1.2" style="stroke:#038048;stroke-width:0.4;"/><text fill="#000000" font-family="sans-serif" font-size="5.6" lengthAdjust="spacing" textLength="63.7984" x="1045.4" y="505.9266">void setCommentVisible()</text><ellipse cx="1041.8" cy="511.6563" fill="#84BE84" rx="1.2" ry="1.2" style="stroke:#038048;stroke-width:0.4;"/><text fill="#000000" font-family="sans-serif" font-size="5.6" lengthAdjust="spacing" textLength="44.2012" x="1045.4" y="513.375">int getLikeCount()</text></g><!--class MediaEntry--><g class="entity" data-entity="MediaEntry" data-source-line="159" data-uid="ent0030" id="entity_MediaEntry"><rect fill="#F1F1F1" height="108.5813" rx="1" ry="1" style="stroke:#181818;stroke-width:0.2;" width="73.5859" x="1132" y="393.0055"/><ellipse cx="1152.9316" cy="399.4055" fill="#ADD1B2" rx="4.4" ry="4.4" style="stroke:#181818;stroke-width:0.4;"/><path d="M1154.0379,397.7555 Q1154.1004,397.668 1154.1754,397.6242 Q1154.2504,397.5805 1154.3379,397.5805 Q1154.4879,397.5805 1154.5816,397.6867 Q1154.6754,397.7867 1154.6754,398.0305 L1154.6754,398.6117 Q1154.6754,398.8555 1154.5816,398.9617 Q1154.4879,399.068 1154.3379,399.068 Q1154.2004,399.068 1154.1191,398.9867 Q1154.0379,398.9117 1153.9941,398.7055 Q1153.9754,398.5617 1153.9004,398.4867 Q1153.7691,398.3367 1153.5254,398.2492 Q1153.2816,398.1617 1153.0316,398.1617 Q1152.7254,398.1617 1152.4691,398.293 Q1152.2191,398.4242 1152.0191,398.7242 Q1151.8254,399.0242 1151.8254,399.4367 L1151.8254,399.8742 Q1151.8254,400.368 1152.1816,400.6992 Q1152.5379,401.0242 1153.1754,401.0242 Q1153.5504,401.0242 1153.8129,400.9242 Q1153.9691,400.8617 1154.1379,400.6867 Q1154.2441,400.5805 1154.3004,400.5492 Q1154.3629,400.518 1154.4441,400.518 Q1154.5754,400.518 1154.6754,400.6242 Q1154.7816,400.7242 1154.7816,400.8617 Q1154.7816,400.9992 1154.6441,401.1617 Q1154.4441,401.393 1154.1254,401.5242 Q1153.6941,401.7055 1153.1754,401.7055 Q1152.5691,401.7055 1152.0879,401.4555 Q1151.6941,401.2555 1151.4191,400.8305 Q1151.1441,400.3992 1151.1441,399.8867 L1151.1441,399.4242 Q1151.1441,398.893 1151.3879,398.4367 Q1151.6379,397.9742 1152.0754,397.7305 Q1152.5129,397.4805 1153.0066,397.4805 Q1153.3004,397.4805 1153.5566,397.5492 Q1153.8191,397.6117 1154.0379,397.7555 Z " fill="#000000"/><text fill="#000000" font-family="sans-serif" font-size="5.6" lengthAdjust="spacing" textLength="28.3227" x="1161.1316" y="401.7242">MediaEntry</text><line style="stroke:#181818;stroke-width:0.2;" x1="1132.4" x2="1205.1859" y1="405.8055" y2="405.8055"/><rect fill="none" height="2.4" style="stroke:#C82930;stroke-width:0.4;" width="2.4" x="1135.2" y="410.5297"/><text fill="#000000" font-family="sans-serif" font-size="5.6" lengthAdjust="spacing" textLength="19.6027" x="1140" y="413.4484">UUID id</text><polygon fill="none" points="1136.4,417.1781,1138,418.7781,1136.4,420.3781,1134.8,418.7781" style="stroke:#B38D22;stroke-width:0.4;"/><text fill="#000000" font-family="sans-serif" font-size="5.6" lengthAdjust="spacing" textLength="24.8992" x="1140" y="420.8969">String title</text><polygon fill="none" points="1136.4,424.6266,1138,426.2266,1136.4,427.8266,1134.8,426.2266" style="stroke:#B38D22;stroke-width:0.4;"/><text fill="#000000" font-family="sans-serif" font-size="5.6" lengthAdjust="spacing" textLength="43.266" x="1140" y="428.3453">String description</text><polygon fill="none" points="1136.4,432.075,1138,433.675,1136.4,435.275,1134.8,433.675" style="stroke:#B38D22;stroke-width:0.4;"/><text fill="#000000" font-family="sans-serif" font-size="5.6" lengthAdjust="spacing" textLength="52.9129" x="1140" y="435.7938">MediaEntryType type</text><polygon fill="none" points="1136.4,439.5234,1138,441.1234,1136.4,442.7234,1134.8,441.1234" style="stroke:#B38D22;stroke-width:0.4;"/><text fill="#000000" font-family="sans-serif" font-size="5.6" lengthAdjust="spacing" textLength="43.5805" x="1140" y="443.2422">Year releaseYear</text><polygon fill="none" points="1136.4,446.9719,1138,448.5719,1136.4,450.1719,1134.8,448.5719" style="stroke:#B38D22;stroke-width:0.4;"/><text fill="#000000" font-family="sans-serif" font-size="5.6" lengthAdjust="spacing" textLength="43.266" x="1140" y="450.6906">int ageRestriction</text><polygon fill="none" points="1136.4,454.4203,1138,456.0203,1136.4,457.6203,1134.8,456.0203" style="stroke:#B38D22;stroke-width:0.4;"/><text fill="#000000" font-family="sans-serif" font-size="5.6" lengthAdjust="spacing" textLength="49.4977" x="1140" y="458.1391">List&lt;Genre&gt; genres</text><rect fill="none" height="2.4" style="stroke:#C82930;stroke-width:0.4;" width="2.4" x="1135.2" y="462.6688"/><text fill="#000000" font-family="sans-serif" font-size="5.6" lengthAdjust="spacing" textLength="30.8082" x="1140" y="465.5875">User creator</text><rect fill="none" height="2.4" style="stroke:#C82930;stroke-width:0.4;" width="2.4" x="1135.2" y="470.1172"/><text fill="#000000" font-family="sans-serif" font-size="5.6" lengthAdjust="spacing" textLength="63.1859" x="1140" y="473.0359">LocalDateTime createdAt</text><line style="stroke:#181818;stroke-width:0.2;" x1="1132.4" x2="1205.1859" y1="476.0414" y2="476.0414"/><ellipse cx="1136.4" cy="481.9656" fill="#84BE84" rx="1.2" ry="1.2" style="stroke:#038048;stroke-width:0.4;"/><text fill="#000000" font-family="sans-serif" font-size="5.6" lengthAdjust="spacing" textLength="31.4289" x="1140" y="483.6844">UUID getId()</text><ellipse cx="1136.4" cy="489.4141" fill="#84BE84" rx="1.2" ry="1.2" style="stroke:#038048;stroke-width:0.4;"/><text fill="#000000" font-family="sans-serif" font-size="5.6" lengthAdjust="spacing" textLength="43.5668" x="1140" y="491.1328">User getCreator()</text><ellipse cx="1136.4" cy="496.8625" fill="#84BE84" rx="1.2" ry="1.2" style="stroke:#038048;stroke-width:0.4;"/><text fill="#000000" font-family="sans-serif" font-size="5.6" lengthAdjust="spacing" textLength="54.1652" x="1140" y="498.5813">double getAvgScore()</text></g><!--class MediaEntryRepository--><g class="entity" data-entity="MediaEntryRepository" data-source-line="9" data-uid="ent0008" id="entity_MediaEntryRepository"><rect fill="#F1F1F1" height="56.4422" rx="1" ry="1" style="stroke:#181818;stroke-width:0.2;" width="77.302" x="653.4" y="419.0055"/><ellipse cx="663.6356" cy="425.4055" fill="#ADD1B2" rx="4.4" ry="4.4" style="stroke:#181818;stroke-width:0.4;"/><path d="M664.7419,423.7555 Q664.8044,423.668 664.8794,423.6242 Q664.9544,423.5805 665.0419,423.5805 Q665.1919,423.5805 665.2856,423.6867 Q665.3794,423.7867 665.3794,424.0305 L665.3794,424.6117 Q665.3794,424.8555 665.2856,424.9617 Q665.1919,425.068 665.0419,425.068 Q664.9044,425.068 664.8231,424.9867 Q664.7419,424.9117 664.6981,424.7055 Q664.6794,424.5617 664.6044,424.4867 Q664.4731,424.3367 664.2294,424.2492 Q663.9856,424.1617 663.7356,424.1617 Q663.4294,424.1617 663.1731,424.293 Q662.9231,424.4242 662.7231,424.7242 Q662.5294,425.0242 662.5294,425.4367 L662.5294,425.8742 Q662.5294,426.368 662.8856,426.6992 Q663.2419,427.0242 663.8794,427.0242 Q664.2544,427.0242 664.5169,426.9242 Q664.6731,426.8617 664.8419,426.6867 Q664.9481,426.5805 665.0044,426.5492 Q665.0669,426.518 665.1481,426.518 Q665.2794,426.518 665.3794,426.6242 Q665.4856,426.7242 665.4856,426.8617 Q665.4856,426.9992 665.3481,427.1617 Q665.1481,427.393 664.8294,427.5242 Q664.3981,427.7055 663.8794,427.7055 Q663.2731,427.7055 662.7919,427.4555 Q662.3981,427.2555 662.1231,426.8305 Q661.8481,426.3992 661.8481,425.8867 L661.8481,425.4242 Q661.8481,424.893 662.0919,424.4367 Q662.3419,423.9742 662.7794,423.7305 Q663.2169,423.4805 663.7106,423.4805 Q664.0044,423.4805 664.2606,423.5492 Q664.5231,423.6117 664.7419,423.7555 Z " fill="#000000"/><text fill="#000000" font-family="sans-serif" font-size="5.6" lengthAdjust="spacing" textLength="55.0895" x="670.1769" y="427.7242">MediaEntryRepository</text><line style="stroke:#181818;stroke-width:0.2;" x1="653.8" x2="730.302" y1="431.8055" y2="431.8055"/><rect fill="none" height="2.4" style="stroke:#C82930;stroke-width:0.4;" width="2.4" x="656.6" y="436.5297"/><text fill="#000000" font-family="sans-serif" font-size="5.6" lengthAdjust="spacing" textLength="31.757" x="661.4" y="439.4484">Database db</text><line style="stroke:#181818;stroke-width:0.2;" x1="653.8" x2="730.302" y1="442.4539" y2="442.4539"/><ellipse cx="657.8" cy="448.3781" fill="#84BE84" rx="1.2" ry="1.2" style="stroke:#038048;stroke-width:0.4;"/><text fill="#000000" font-family="sans-serif" font-size="5.6" lengthAdjust="spacing" textLength="66.902" x="661.4" y="450.0969">UUID save(MediaEntryTO)</text><ellipse cx="657.8" cy="455.8266" fill="#84BE84" rx="1.2" ry="1.2" style="stroke:#038048;stroke-width:0.4;"/><text fill="#000000" font-family="sans-serif" font-size="5.6" lengthAdjust="spacing" textLength="63.4867" x="661.4" y="457.5453">ResultSet findById(UUID)</text><ellipse cx="657.8" cy="463.275" fill="#84BE84" rx="1.2" ry="1.2" style="stroke:#038048;stroke-width:0.4;"/><text fill="#000000" font-family="sans-serif" font-size="5.6" lengthAdjust="spacing" textLength="44.5047" x="661.4" y="464.9938">void delete(UUID)</text><ellipse cx="657.8" cy="470.7234" fill="#84BE84" rx="1.2" ry="1.2" style="stroke:#038048;stroke-width:0.4;"/><text fill="#000000" font-family="sans-serif" font-size="5.6" lengthAdjust="spacing" textLength="44.8164" x="661.4" y="472.4422">ResultSet findAll()</text></g><!--class RatingRepository--><g class="entity" data-entity="RatingRepository" data-source-line="28" data-uid="ent0013" id="entity_RatingRepository"><rect fill="#F1F1F1" height="56.4422" rx="1" ry="1" style="stroke:#181818;stroke-width:0.2;" width="73.8867" x="744.6" y="419.0055"/><ellipse cx="758.7596" cy="425.4055" fill="#ADD1B2" rx="4.4" ry="4.4" style="stroke:#181818;stroke-width:0.4;"/><path d="M759.8658,423.7555 Q759.9283,423.668 760.0033,423.6242 Q760.0783,423.5805 760.1658,423.5805 Q760.3158,423.5805 760.4096,423.6867 Q760.5033,423.7867 760.5033,424.0305 L760.5033,424.6117 Q760.5033,424.8555 760.4096,424.9617 Q760.3158,425.068 760.1658,425.068 Q760.0283,425.068 759.9471,424.9867 Q759.8658,424.9117 759.8221,424.7055 Q759.8033,424.5617 759.7283,424.4867 Q759.5971,424.3367 759.3533,424.2492 Q759.1096,424.1617 758.8596,424.1617 Q758.5533,424.1617 758.2971,424.293 Q758.0471,424.4242 757.8471,424.7242 Q757.6533,425.0242 757.6533,425.4367 L757.6533,425.8742 Q757.6533,426.368 758.0096,426.6992 Q758.3658,427.0242 759.0033,427.0242 Q759.3783,427.0242 759.6408,426.9242 Q759.7971,426.8617 759.9658,426.6867 Q760.0721,426.5805 760.1283,426.5492 Q760.1908,426.518 760.2721,426.518 Q760.4033,426.518 760.5033,426.6242 Q760.6096,426.7242 760.6096,426.8617 Q760.6096,426.9992 760.4721,427.1617 Q760.2721,427.393 759.9533,427.5242 Q759.5221,427.7055 759.0033,427.7055 Q758.3971,427.7055 757.9158,427.4555 Q757.5221,427.2555 757.2471,426.8305 Q756.9721,426.3992 756.9721,425.8867 L756.9721,425.4242 Q756.9721,424.893 757.2158,424.4367 Q757.4658,423.9742 757.9033,423.7305 Q758.3408,423.4805 758.8346,423.4805 Q759.1283,423.4805 759.3846,423.5492 Q759.6471,423.6117 759.8658,423.7555 Z " fill="#000000"/><text fill="#000000" font-family="sans-serif" font-size="5.6" lengthAdjust="spacing" textLength="42.9543" x="766.1728" y="427.7242">RatingRepository</text><line style="stroke:#181818;stroke-width:0.2;" x1="745" x2="818.0867" y1="431.8055" y2="431.8055"/><rect fill="none" height="2.4" style="stroke:#C82930;stroke-width:0.4;" width="2.4" x="747.8" y="436.5297"/><text fill="#000000" font-family="sans-serif" font-size="5.6" lengthAdjust="spacing" textLength="31.757" x="752.6" y="439.4484">Database db</text><line style="stroke:#181818;stroke-width:0.2;" x1="745" x2="818.0867" y1="442.4539" y2="442.4539"/><ellipse cx="749" cy="448.3781" fill="#84BE84" rx="1.2" ry="1.2" style="stroke:#038048;stroke-width:0.4;"/><text fill="#000000" font-family="sans-serif" font-size="5.6" lengthAdjust="spacing" textLength="54.7668" x="752.6" y="450.0969">UUID save(RatingTO)</text><ellipse cx="749" cy="455.8266" fill="#84BE84" rx="1.2" ry="1.2" style="stroke:#038048;stroke-width:0.4;"/><text fill="#000000" font-family="sans-serif" font-size="5.6" lengthAdjust="spacing" textLength="63.4867" x="752.6" y="457.5453">ResultSet findById(UUID)</text><ellipse cx="749" cy="463.275" fill="#84BE84" rx="1.2" ry="1.2" style="stroke:#038048;stroke-width:0.4;"/><text fill="#000000" font-family="sans-serif" font-size="5.6" lengthAdjust="spacing" textLength="44.5047" x="752.6" y="464.9938">void delete(UUID)</text><ellipse cx="749" cy="470.7234" fill="#84BE84" rx="1.2" ry="1.2" style="stroke:#038048;stroke-width:0.4;"/><text fill="#000000" font-family="sans-serif" font-size="5.6" lengthAdjust="spacing" textLength="44.8164" x="752.6" y="472.4422">ResultSet findAll()</text></g><!--class Repository--><g class="entity" data-entity="Repository" data-source-line="68" data-uid="ent0017" id="entity_Repository"><rect fill="#F1F1F1" height="48.9938" rx="1" ry="1" style="stroke:#181818;stroke-width:0.2;" width="73.8867" x="744.6" y="245.6055"/><ellipse cx="766.46" cy="252.0055" fill="#B4A7E5" rx="4.4" ry="4.4" style="stroke:#181818;stroke-width:0.4;"/><path d="M766.8412,250.6617 L766.8412,253.3242 L767.5287,253.3242 Q767.7725,253.3242 767.8787,253.418 Q767.985,253.5117 767.985,253.668 Q767.985,253.818 767.8787,253.9117 Q767.7725,254.0055 767.5287,254.0055 L765.4725,254.0055 Q765.2287,254.0055 765.1225,253.9117 Q765.0162,253.818 765.0162,253.6617 Q765.0162,253.5117 765.1225,253.418 Q765.2287,253.3242 765.4725,253.3242 L766.16,253.3242 L766.16,250.6617 L765.4725,250.6617 Q765.2287,250.6617 765.1225,250.568 Q765.0162,250.4742 765.0162,250.318 Q765.0162,250.168 765.1225,250.0742 Q765.2287,249.9805 765.4725,249.9805 L767.5287,249.9805 Q767.7725,249.9805 767.8787,250.0742 Q767.985,250.168 767.985,250.318 Q767.985,250.4742 767.8787,250.568 Q767.7725,250.6617 767.5287,250.6617 L766.8412,250.6617 Z " fill="#000000"/><text fill="#000000" font-family="sans-serif" font-size="5.6" font-style="italic" lengthAdjust="spacing" textLength="26.7668" x="774.66" y="254.3242">Repository</text><line style="stroke:#181818;stroke-width:0.2;" x1="745" x2="818.0867" y1="258.4055" y2="258.4055"/><line style="stroke:#181818;stroke-width:0.2;" x1="745" x2="818.0867" y1="261.6055" y2="261.6055"/><polygon fill="#4177AF" points="749,265.9297,747.4,268.3297,750.6,268.3297" style="stroke:#1963A0;stroke-width:0.4;"/><text fill="#000000" font-family="sans-serif" font-size="5.6" lengthAdjust="spacing" textLength="34.8469" x="752.6" y="269.2484">UUID save(U)</text><polygon fill="#4177AF" points="749,273.3781,747.4,275.7781,750.6,275.7781" style="stroke:#1963A0;stroke-width:0.4;"/><text fill="#000000" font-family="sans-serif" font-size="5.6" lengthAdjust="spacing" textLength="63.4867" x="752.6" y="276.6969">ResultSet findById(UUID)</text><ellipse cx="749" cy="282.4266" fill="#84BE84" rx="1.2" ry="1.2" style="stroke:#038048;stroke-width:0.4;"/><text fill="#000000" font-family="sans-serif" font-size="5.6" lengthAdjust="spacing" textLength="44.5047" x="752.6" y="284.1453">void delete(UUID)</text><ellipse cx="749" cy="289.875" fill="#84BE84" rx="1.2" ry="1.2" style="stroke:#038048;stroke-width:0.4;"/><text fill="#000000" font-family="sans-serif" font-size="5.6" lengthAdjust="spacing" textLength="44.8164" x="752.6" y="291.5938">ResultSet findAll()</text></g><!--class UserRepository--><g class="entity" data-entity="UserRepository" data-source-line="131" data-uid="ent0027" id="entity_UserRepository"><rect fill="#F1F1F1" height="86.2359" rx="1" ry="1" style="stroke:#181818;stroke-width:0.2;" width="95.9887" x="832.8" y="404.0055"/><ellipse cx="859.7992" cy="410.4055" fill="#ADD1B2" rx="4.4" ry="4.4" style="stroke:#181818;stroke-width:0.4;"/><path d="M860.9055,408.7555 Q860.968,408.668 861.043,408.6242 Q861.118,408.5805 861.2055,408.5805 Q861.3555,408.5805 861.4492,408.6867 Q861.543,408.7867 861.543,409.0305 L861.543,409.6117 Q861.543,409.8555 861.4492,409.9617 Q861.3555,410.068 861.2055,410.068 Q861.068,410.068 860.9867,409.9867 Q860.9055,409.9117 860.8617,409.7055 Q860.843,409.5617 860.768,409.4867 Q860.6367,409.3367 860.393,409.2492 Q860.1492,409.1617 859.8992,409.1617 Q859.593,409.1617 859.3367,409.293 Q859.0867,409.4242 858.8867,409.7242 Q858.693,410.0242 858.693,410.4367 L858.693,410.8742 Q858.693,411.368 859.0492,411.6992 Q859.4055,412.0242 860.043,412.0242 Q860.418,412.0242 860.6805,411.9242 Q860.8367,411.8617 861.0055,411.6867 Q861.1117,411.5805 861.168,411.5492 Q861.2305,411.518 861.3117,411.518 Q861.443,411.518 861.543,411.6242 Q861.6492,411.7242 861.6492,411.8617 Q861.6492,411.9992 861.5117,412.1617 Q861.3117,412.393 860.993,412.5242 Q860.5617,412.7055 860.043,412.7055 Q859.4367,412.7055 858.9555,412.4555 Q858.5617,412.2555 858.2867,411.8305 Q858.0117,411.3992 858.0117,410.8867 L858.0117,410.4242 Q858.0117,409.893 858.2555,409.4367 Q858.5055,408.9742 858.943,408.7305 Q859.3805,408.4805 859.8742,408.4805 Q860.168,408.4805 860.4242,408.5492 Q860.6867,408.6117 860.9055,408.7555 Z " fill="#000000"/><text fill="#000000" font-family="sans-serif" font-size="5.6" lengthAdjust="spacing" textLength="38.5902" x="867.9992" y="412.7242">UserRepository</text><line style="stroke:#181818;stroke-width:0.2;" x1="833.2" x2="928.3887" y1="416.8055" y2="416.8055"/><rect fill="none" height="2.4" style="stroke:#C82930;stroke-width:0.4;" width="2.4" x="836" y="421.5297"/><text fill="#000000" font-family="sans-serif" font-size="5.6" lengthAdjust="spacing" textLength="31.757" x="840.8" y="424.4484">Database db</text><line style="stroke:#181818;stroke-width:0.2;" x1="833.2" x2="928.3887" y1="427.4539" y2="427.4539"/><ellipse cx="837.2" cy="433.3781" fill="#84BE84" rx="1.2" ry="1.2" style="stroke:#038048;stroke-width:0.4;"/><text fill="#000000" font-family="sans-serif" font-size="5.6" lengthAdjust="spacing" textLength="50.4027" x="840.8" y="435.0969">UUID save(UserTO)</text><ellipse cx="837.2" cy="440.8266" fill="#84BE84" rx="1.2" ry="1.2" style="stroke:#038048;stroke-width:0.4;"/><text fill="#000000" font-family="sans-serif" font-size="5.6" lengthAdjust="spacing" textLength="62.5598" x="840.8" y="442.5453">void update(String,UUID)</text><ellipse cx="837.2" cy="448.275" fill="#84BE84" rx="1.2" ry="1.2" style="stroke:#038048;stroke-width:0.4;"/><text fill="#000000" font-family="sans-serif" font-size="5.6" lengthAdjust="spacing" textLength="80.9102" x="840.8" y="449.9938">UUID getUUID(ResultSet,String)</text><ellipse cx="837.2" cy="455.7234" fill="#84BE84" rx="1.2" ry="1.2" style="stroke:#038048;stroke-width:0.4;"/><text fill="#000000" font-family="sans-serif" font-size="5.6" lengthAdjust="spacing" textLength="63.4867" x="840.8" y="457.4422">ResultSet findById(UUID)</text><ellipse cx="837.2" cy="463.1719" fill="#84BE84" rx="1.2" ry="1.2" style="stroke:#038048;stroke-width:0.4;"/><text fill="#000000" font-family="sans-serif" font-size="5.6" lengthAdjust="spacing" textLength="85.5887" x="840.8" y="464.8906">ResultSet findByUsername(String)</text><ellipse cx="837.2" cy="470.6203" fill="#84BE84" rx="1.2" ry="1.2" style="stroke:#038048;stroke-width:0.4;"/><text fill="#000000" font-family="sans-serif" font-size="5.6" lengthAdjust="spacing" textLength="44.8164" x="840.8" y="472.3391">ResultSet findAll()</text><ellipse cx="837.2" cy="478.0688" fill="#84BE84" rx="1.2" ry="1.2" style="stroke:#038048;stroke-width:0.4;"/><text fill="#000000" font-family="sans-serif" font-size="5.6" lengthAdjust="spacing" textLength="44.5047" x="840.8" y="479.7875">void delete(UUID)</text><ellipse cx="837.2" cy="485.5172" fill="#84BE84" rx="1.2" ry="1.2" style="stroke:#038048;stroke-width:0.4;"/><text fill="#000000" font-family="sans-serif" font-size="5.6" lengthAdjust="spacing" textLength="84.6617" x="840.8" y="487.2359">boolean userAlreadyExists(String)</text></g><!--class AuthHandler--><g class="entity" data-entity="AuthHandler" data-source-line="18" data-uid="ent0010" id="entity_AuthHandler"><rect fill="#F1F1F1" height="34.0969" rx="1" ry="1" style="stroke:#181818;stroke-width:0.2;" width="77.9527" x="552.6" y="253.0055"/><ellipse cx="574.3109" cy="259.4055" fill="#ADD1B2" rx="4.4" ry="4.4" style="stroke:#181818;stroke-width:0.4;"/><path d="M575.4172,257.7555 Q575.4797,257.668 575.5547,257.6242 Q575.6297,257.5805 575.7172,257.5805 Q575.8672,257.5805 575.9609,257.6867 Q576.0547,257.7867 576.0547,258.0305 L576.0547,258.6117 Q576.0547,258.8555 575.9609,258.9617 Q575.8672,259.068 575.7172,259.068 Q575.5797,259.068 575.4984,258.9867 Q575.4172,258.9117 575.3734,258.7055 Q575.3547,258.5617 575.2797,258.4867 Q575.1484,258.3367 574.9047,258.2492 Q574.6609,258.1617 574.4109,258.1617 Q574.1047,258.1617 573.8484,258.293 Q573.5984,258.4242 573.3984,258.7242 Q573.2047,259.0242 573.2047,259.4367 L573.2047,259.8742 Q573.2047,260.368 573.5609,260.6992 Q573.9172,261.0242 574.5547,261.0242 Q574.9297,261.0242 575.1922,260.9242 Q575.3484,260.8617 575.5172,260.6867 Q575.6234,260.5805 575.6797,260.5492 Q575.7422,260.518 575.8234,260.518 Q575.9547,260.518 576.0547,260.6242 Q576.1609,260.7242 576.1609,260.8617 Q576.1609,260.9992 576.0234,261.1617 Q575.8234,261.393 575.5047,261.5242 Q575.0734,261.7055 574.5547,261.7055 Q573.9484,261.7055 573.4672,261.4555 Q573.0734,261.2555 572.7984,260.8305 Q572.5234,260.3992 572.5234,259.8867 L572.5234,259.4242 Q572.5234,258.893 572.7672,258.4367 Q573.0172,257.9742 573.4547,257.7305 Q573.8922,257.4805 574.3859,257.4805 Q574.6797,257.4805 574.9359,257.5492 Q575.1984,257.6117 575.4172,257.7555 Z " fill="#000000"/><text fill="#000000" font-family="sans-serif" font-size="5.6" lengthAdjust="spacing" textLength="31.1309" x="582.5109" y="261.7242">AuthHandler</text><line style="stroke:#181818;stroke-width:0.2;" x1="553" x2="630.1527" y1="265.8055" y2="265.8055"/><polygon fill="none" points="557,270.1297,555.4,272.5297,558.6,272.5297" style="stroke:#1963A0;stroke-width:0.4;"/><text fill="#000000" font-family="sans-serif" font-size="5.6" lengthAdjust="spacing" textLength="61.3211" x="560.6" y="273.4484">AuthService authService</text><line style="stroke:#181818;stroke-width:0.2;" x1="553" x2="630.1527" y1="276.4539" y2="276.4539"/><ellipse cx="557" cy="282.3781" fill="#84BE84" rx="1.2" ry="1.2" style="stroke:#038048;stroke-width:0.4;"/><text fill="#000000" font-family="sans-serif" font-size="5.6" lengthAdjust="spacing" textLength="67.5527" x="560.6" y="284.0969">void handle(HttpExchange)</text></g><!--class HttpMethod--><g class="entity" data-entity="HttpMethod" data-source-line="89" data-uid="ent0022" id="entity_HttpMethod"><rect fill="#F1F1F1" height="56.4422" rx="1" ry="1" style="stroke:#181818;stroke-width:0.2;" width="41.7488" x="496.8" y="241.8055"/><ellipse cx="502.8" cy="248.2055" fill="#EB937F" rx="4.4" ry="4.4" style="stroke:#181818;stroke-width:0.4;"/><path d="M502.3438,248.5242 L502.3438,249.5242 L504.075,249.5242 L504.075,249.1555 Q504.075,248.9117 504.1688,248.8055 Q504.2688,248.6992 504.4188,248.6992 Q504.5688,248.6992 504.6625,248.8055 Q504.7563,248.9117 504.7563,249.1555 L504.7563,250.2055 L501.5563,250.2055 Q501.3063,250.2055 501.2,250.1117 Q501.1,250.018 501.1,249.8617 Q501.1,249.7117 501.2063,249.618 Q501.3125,249.5242 501.5563,249.5242 L501.6625,249.5242 L501.6625,246.8617 L501.5563,246.8617 Q501.3063,246.8617 501.2,246.768 Q501.1,246.6742 501.1,246.518 Q501.1,246.368 501.2,246.2742 Q501.3063,246.1805 501.5563,246.1805 L504.6063,246.1805 L504.6063,247.218 Q504.6063,247.4617 504.5125,247.568 Q504.425,247.668 504.2688,247.668 Q504.1188,247.668 504.025,247.568 Q503.9313,247.4617 503.9313,247.218 L503.9313,246.8617 L502.3438,246.8617 L502.3438,247.843 L502.9375,247.843 Q502.9375,247.5805 502.9875,247.5055 Q503.0938,247.343 503.2813,247.343 Q503.4313,247.343 503.525,247.4492 Q503.6188,247.5492 503.6188,247.793 L503.6188,248.5805 Q503.6188,248.7992 503.5688,248.8742 Q503.4625,249.0305 503.2813,249.0305 Q503.0938,249.0305 502.9875,248.868 Q502.9375,248.793 502.9375,248.5242 L502.3438,248.5242 Z " fill="#000000"/><text fill="#000000" font-family="sans-serif" font-size="5.6" lengthAdjust="spacing" textLength="28.9488" x="508.4" y="250.5242">HttpMethod</text><line style="stroke:#181818;stroke-width:0.2;" x1="497.2" x2="538.1488" y1="254.6055" y2="254.6055"/><ellipse cx="501.2" cy="260.5297" fill="none" rx="1.2" ry="1.2" style="stroke:#038048;stroke-width:0.4;"/><text fill="#000000" font-family="sans-serif" font-size="5.6" lengthAdjust="spacing" textLength="15.2469" x="504.8" y="262.2484">POST</text><ellipse cx="501.2" cy="267.9781" fill="none" rx="1.2" ry="1.2" style="stroke:#038048;stroke-width:0.4;"/><text fill="#000000" font-family="sans-serif" font-size="5.6" lengthAdjust="spacing" textLength="11.5117" x="504.8" y="269.6969">GET</text><ellipse cx="501.2" cy="275.4266" fill="none" rx="1.2" ry="1.2" style="stroke:#038048;stroke-width:0.4;"/><text fill="#000000" font-family="sans-serif" font-size="5.6" lengthAdjust="spacing" textLength="11.2" x="504.8" y="277.1453">PUT</text><ellipse cx="501.2" cy="282.875" fill="none" rx="1.2" ry="1.2" style="stroke:#038048;stroke-width:0.4;"/><text fill="#000000" font-family="sans-serif" font-size="5.6" lengthAdjust="spacing" textLength="18.9793" x="504.8" y="284.5938">PATCH</text><ellipse cx="501.2" cy="290.3234" fill="none" rx="1.2" ry="1.2" style="stroke:#038048;stroke-width:0.4;"/><text fill="#000000" font-family="sans-serif" font-size="5.6" lengthAdjust="spacing" textLength="21.7848" x="504.8" y="292.0422">DELETE</text><line style="stroke:#181818;stroke-width:0.2;" x1="497.2" x2="538.1488" y1="295.0477" y2="295.0477"/></g><!--class UUIDGenerator--><g class="entity" data-entity="UUIDGenerator" data-source-line="75" data-uid="ent0018" id="entity_UUIDGenerator"><rect fill="#F1F1F1" height="41.5453" rx="1" ry="1" style="stroke:#181818;stroke-width:0.2;" width="80.4301" x="393.8" y="249.2055"/><ellipse cx="412.8641" cy="255.6055" fill="#ADD1B2" rx="4.4" ry="4.4" style="stroke:#181818;stroke-width:0.4;"/><path d="M413.9703,253.9555 Q414.0328,253.868 414.1078,253.8242 Q414.1828,253.7805 414.2703,253.7805 Q414.4203,253.7805 414.5141,253.8867 Q414.6078,253.9867 414.6078,254.2305 L414.6078,254.8117 Q414.6078,255.0555 414.5141,255.1617 Q414.4203,255.268 414.2703,255.268 Q414.1328,255.268 414.0516,255.1867 Q413.9703,255.1117 413.9266,254.9055 Q413.9078,254.7617 413.8328,254.6867 Q413.7016,254.5367 413.4578,254.4492 Q413.2141,254.3617 412.9641,254.3617 Q412.6578,254.3617 412.4016,254.493 Q412.1516,254.6242 411.9516,254.9242 Q411.7578,255.2242 411.7578,255.6367 L411.7578,256.0742 Q411.7578,256.568 412.1141,256.8992 Q412.4703,257.2242 413.1078,257.2242 Q413.4828,257.2242 413.7453,257.1242 Q413.9016,257.0617 414.0703,256.8867 Q414.1766,256.7805 414.2328,256.7492 Q414.2953,256.718 414.3766,256.718 Q414.5078,256.718 414.6078,256.8242 Q414.7141,256.9242 414.7141,257.0617 Q414.7141,257.1992 414.5766,257.3617 Q414.3766,257.593 414.0578,257.7242 Q413.6266,257.9055 413.1078,257.9055 Q412.5016,257.9055 412.0203,257.6555 Q411.6266,257.4555 411.3516,257.0305 Q411.0766,256.5992 411.0766,256.0867 L411.0766,255.6242 Q411.0766,255.093 411.3203,254.6367 Q411.5703,254.1742 412.0078,253.9305 Q412.4453,253.6805 412.9391,253.6805 Q413.2328,253.6805 413.4891,253.7492 Q413.7516,253.8117 413.9703,253.9555 Z " fill="#000000"/><text fill="#000000" font-family="sans-serif" font-size="5.6" lengthAdjust="spacing" textLength="38.902" x="421.0641" y="257.9242">UUIDGenerator</text><line style="stroke:#181818;stroke-width:0.2;" x1="394.2" x2="473.8301" y1="262.0055" y2="262.0055"/><line style="stroke:#181818;stroke-width:0.2;" x1="394.2" x2="473.8301" y1="265.2055" y2="265.2055"/><ellipse cx="398.2" cy="271.1297" fill="#84BE84" rx="1.2" ry="1.2" style="stroke:#038048;stroke-width:0.4;"/><text fill="#000000" font-family="sans-serif" font-size="5.6" lengthAdjust="spacing" text-decoration="underline" textLength="60.684" x="401.8" y="272.8484">UUID generateUUIDv7()</text><ellipse cx="398.2" cy="278.5781" fill="#84BE84" rx="1.2" ry="1.2" style="stroke:#038048;stroke-width:0.4;"/><text fill="#000000" font-family="sans-serif" font-size="5.6" lengthAdjust="spacing" text-decoration="underline" textLength="70.0301" x="401.8" y="280.2969">boolean isValidUUID(String)</text><ellipse cx="398.2" cy="286.0266" fill="#84BE84" rx="1.2" ry="1.2" style="stroke:#038048;stroke-width:0.4;"/><text fill="#000000" font-family="sans-serif" font-size="5.6" lengthAdjust="spacing" text-decoration="underline" textLength="61.2992" x="401.8" y="287.7453">UUID parseUUID(String)</text></g><!--class JsonHelper--><g class="entity" data-entity="JsonHelper" data-source-line="146" data-uid="ent0029" id="entity_JsonHelper"><rect fill="#F1F1F1" height="86.2359" rx="1" ry="1" style="stroke:#181818;stroke-width:0.2;" width="127.1141" x="252.4" y="226.8055"/><ellipse cx="300.0943" cy="233.2055" fill="#ADD1B2" rx="4.4" ry="4.4" style="stroke:#181818;stroke-width:0.4;"/><path d="M301.2006,231.5555 Q301.2631,231.468 301.3381,231.4242 Q301.4131,231.3805 301.5006,231.3805 Q301.6506,231.3805 301.7443,231.4867 Q301.8381,231.5867 301.8381,231.8305 L301.8381,232.4117 Q301.8381,232.6555 301.7443,232.7617 Q301.6506,232.868 301.5006,232.868 Q301.3631,232.868 301.2818,232.7867 Q301.2006,232.7117 301.1568,232.5055 Q301.1381,232.3617 301.0631,232.2867 Q300.9318,232.1367 300.6881,232.0492 Q300.4443,231.9617 300.1943,231.9617 Q299.8881,231.9617 299.6318,232.093 Q299.3818,232.2242 299.1818,232.5242 Q298.9881,232.8242 298.9881,233.2367 L298.9881,233.6742 Q298.9881,234.168 299.3443,234.4992 Q299.7006,234.8242 300.3381,234.8242 Q300.7131,234.8242 300.9756,234.7242 Q301.1318,234.6617 301.3006,234.4867 Q301.4068,234.3805 301.4631,234.3492 Q301.5256,234.318 301.6068,234.318 Q301.7381,234.318 301.8381,234.4242 Q301.9443,234.5242 301.9443,234.6617 Q301.9443,234.7992 301.8068,234.9617 Q301.6068,235.193 301.2881,235.3242 Q300.8568,235.5055 300.3381,235.5055 Q299.7318,235.5055 299.2506,235.2555 Q298.8568,235.0555 298.5818,234.6305 Q298.3068,234.1992 298.3068,233.6867 L298.3068,233.2242 Q298.3068,232.693 298.5506,232.2367 Q298.8006,231.7742 299.2381,231.5305 Q299.6756,231.2805 300.1693,231.2805 Q300.4631,231.2805 300.7193,231.3492 Q300.9818,231.4117 301.2006,231.5555 Z " fill="#000000"/><text fill="#000000" font-family="sans-serif" font-size="5.6" lengthAdjust="spacing" textLength="28.3254" x="308.2943" y="235.5242">JsonHelper</text><line style="stroke:#181818;stroke-width:0.2;" x1="252.8" x2="379.1141" y1="239.6055" y2="239.6055"/><rect fill="none" height="2.4" style="stroke:#C82930;stroke-width:0.4;" width="2.4" x="255.6" y="244.3297"/><text fill="#000000" font-family="sans-serif" font-size="5.6" lengthAdjust="spacing" text-decoration="underline" textLength="55.7156" x="260.4" y="247.2484">ObjectMapper mapper</text><line style="stroke:#181818;stroke-width:0.2;" x1="252.8" x2="379.1141" y1="250.2539" y2="250.2539"/><ellipse cx="256.8" cy="256.1781" fill="#84BE84" rx="1.2" ry="1.2" style="stroke:#038048;stroke-width:0.4;"/><text fill="#000000" font-family="sans-serif" font-size="5.6" lengthAdjust="spacing" text-decoration="underline" textLength="104.2699" x="260.4" y="257.8969">T parseRequest(HttpExchange,Class&lt;T&gt;)</text><ellipse cx="256.8" cy="263.6266" fill="#84BE84" rx="1.2" ry="1.2" style="stroke:#038048;stroke-width:0.4;"/><text fill="#000000" font-family="sans-serif" font-size="5.6" lengthAdjust="spacing" text-decoration="underline" textLength="74.6922" x="260.4" y="265.3453">T parseJson(String,Class&lt;T&gt;)</text><ellipse cx="256.8" cy="271.075" fill="#84BE84" rx="1.2" ry="1.2" style="stroke:#038048;stroke-width:0.4;"/><text fill="#000000" font-family="sans-serif" font-size="5.6" lengthAdjust="spacing" text-decoration="underline" textLength="52.5984" x="260.4" y="272.7938">String toJson(Object)</text><ellipse cx="256.8" cy="278.5234" fill="#84BE84" rx="1.2" ry="1.2" style="stroke:#038048;stroke-width:0.4;"/><text fill="#000000" font-family="sans-serif" font-size="5.6" lengthAdjust="spacing" text-decoration="underline" textLength="113.307" x="260.4" y="280.2422">void sendResponse(HttpExchange,int,Object)</text><ellipse cx="256.8" cy="285.9719" fill="#84BE84" rx="1.2" ry="1.2" style="stroke:#038048;stroke-width:0.4;"/><text fill="#000000" font-family="sans-serif" font-size="5.6" lengthAdjust="spacing" text-decoration="underline" textLength="98.9789" x="260.4" y="287.6906">void sendError(HttpExchange,int,String)</text><ellipse cx="256.8" cy="293.4203" fill="#84BE84" rx="1.2" ry="1.2" style="stroke:#038048;stroke-width:0.4;"/><text fill="#000000" font-family="sans-serif" font-size="5.6" lengthAdjust="spacing" text-decoration="underline" textLength="100.2285" x="260.4" y="295.1391">void sendSuccess(HttpExchange,String)</text><ellipse cx="256.8" cy="300.8688" fill="#84BE84" rx="1.2" ry="1.2" style="stroke:#038048;stroke-width:0.4;"/><text fill="#000000" font-family="sans-serif" font-size="5.6" lengthAdjust="spacing" text-decoration="underline" textLength="116.7141" x="260.4" y="302.5875">Map&lt;String,String&gt; parseQueryParams(String)</text><ellipse cx="256.8" cy="308.3172" fill="#84BE84" rx="1.2" ry="1.2" style="stroke:#038048;stroke-width:0.4;"/><text fill="#000000" font-family="sans-serif" font-size="5.6" lengthAdjust="spacing" text-decoration="underline" textLength="82.1734" x="260.4" y="310.0359">String[] getPathSegments(String)</text></g><!--class UserTO--><g class="entity" data-entity="UserTO" data-source-line="81" data-uid="ent0020" id="entity_UserTO"><rect fill="#F1F1F1" height="48.9938" rx="1" ry="1" style="stroke:#181818;stroke-width:0.2;" width="84.1734" x="1216" y="547.2055"/><ellipse cx="1246.5867" cy="553.6055" fill="#ADD1B2" rx="4.4" ry="4.4" style="stroke:#181818;stroke-width:0.4;"/><path d="M1247.693,551.9555 Q1247.7555,551.868 1247.8305,551.8242 Q1247.9055,551.7805 1247.993,551.7805 Q1248.143,551.7805 1248.2367,551.8867 Q1248.3305,551.9867 1248.3305,552.2305 L1248.3305,552.8117 Q1248.3305,553.0555 1248.2367,553.1617 Q1248.143,553.268 1247.993,553.268 Q1247.8555,553.268 1247.7742,553.1867 Q1247.693,553.1117 1247.6492,552.9055 Q1247.6305,552.7617 1247.5555,552.6867 Q1247.4242,552.5367 1247.1805,552.4492 Q1246.9367,552.3617 1246.6867,552.3617 Q1246.3805,552.3617 1246.1242,552.493 Q1245.8742,552.6242 1245.6742,552.9242 Q1245.4805,553.2242 1245.4805,553.6367 L1245.4805,554.0742 Q1245.4805,554.568 1245.8367,554.8992 Q1246.193,555.2242 1246.8305,555.2242 Q1247.2055,555.2242 1247.468,555.1242 Q1247.6242,555.0617 1247.793,554.8867 Q1247.8992,554.7805 1247.9555,554.7492 Q1248.018,554.718 1248.0992,554.718 Q1248.2305,554.718 1248.3305,554.8242 Q1248.4367,554.9242 1248.4367,555.0617 Q1248.4367,555.1992 1248.2992,555.3617 Q1248.0992,555.593 1247.7805,555.7242 Q1247.3492,555.9055 1246.8305,555.9055 Q1246.2242,555.9055 1245.743,555.6555 Q1245.3492,555.4555 1245.0742,555.0305 Q1244.7992,554.5992 1244.7992,554.0867 L1244.7992,553.6242 Q1244.7992,553.093 1245.043,552.6367 Q1245.293,552.1742 1245.7305,551.9305 Q1246.168,551.6805 1246.6617,551.6805 Q1246.9555,551.6805 1247.2117,551.7492 Q1247.4742,551.8117 1247.693,551.9555 Z " fill="#000000"/><text fill="#000000" font-family="sans-serif" font-size="5.6" lengthAdjust="spacing" textLength="19.6" x="1254.7867" y="555.9242">UserTO</text><line style="stroke:#181818;stroke-width:0.2;" x1="1216.4" x2="1299.7734" y1="560.0055" y2="560.0055"/><rect fill="none" height="2.4" style="stroke:#C82930;stroke-width:0.4;" width="2.4" x="1219.2" y="564.7297"/><text fill="#000000" font-family="sans-serif" font-size="5.6" lengthAdjust="spacing" textLength="41.0867" x="1224" y="567.6484">String username</text><rect fill="none" height="2.4" style="stroke:#C82930;stroke-width:0.4;" width="2.4" x="1219.2" y="572.1781"/><text fill="#000000" font-family="sans-serif" font-size="5.6" lengthAdjust="spacing" textLength="61.6383" x="1224" y="575.0969">String password_hashed</text><line style="stroke:#181818;stroke-width:0.2;" x1="1216.4" x2="1299.7734" y1="578.1023" y2="578.1023"/><ellipse cx="1220.4" cy="584.0266" fill="#84BE84" rx="1.2" ry="1.2" style="stroke:#038048;stroke-width:0.4;"/><text fill="#000000" font-family="sans-serif" font-size="5.6" lengthAdjust="spacing" textLength="53.5309" x="1224" y="585.7453">String getUsername()</text><ellipse cx="1220.4" cy="591.475" fill="#84BE84" rx="1.2" ry="1.2" style="stroke:#038048;stroke-width:0.4;"/><text fill="#000000" font-family="sans-serif" font-size="5.6" lengthAdjust="spacing" textLength="73.7734" x="1224" y="593.1938">String getPassword_hashed()</text></g><!--class MediaEntryTO--><g class="entity" data-entity="MediaEntryTO" data-source-line="144" data-uid="ent0028" id="entity_MediaEntryTO"><rect fill="#F1F1F1" height="19.2" rx="1" ry="1" style="stroke:#181818;stroke-width:0.2;" width="48.8992" x="1314" y="562.0055"/><ellipse cx="1320" cy="568.4055" fill="#ADD1B2" rx="4.4" ry="4.4" style="stroke:#181818;stroke-width:0.4;"/><path d="M1321.1063,566.7555 Q1321.1688,566.668 1321.2438,566.6242 Q1321.3188,566.5805 1321.4063,566.5805 Q1321.5563,566.5805 1321.65,566.6867 Q1321.7438,566.7867 1321.7438,567.0305 L1321.7438,567.6117 Q1321.7438,567.8555 1321.65,567.9617 Q1321.5563,568.068 1321.4063,568.068 Q1321.2688,568.068 1321.1875,567.9867 Q1321.1063,567.9117 1321.0625,567.7055 Q1321.0438,567.5617 1320.9688,567.4867 Q1320.8375,567.3367 1320.5938,567.2492 Q1320.35,567.1617 1320.1,567.1617 Q1319.7938,567.1617 1319.5375,567.293 Q1319.2875,567.4242 1319.0875,567.7242 Q1318.8938,568.0242 1318.8938,568.4367 L1318.8938,568.8742 Q1318.8938,569.368 1319.25,569.6992 Q1319.6063,570.0242 1320.2438,570.0242 Q1320.6188,570.0242 1320.8813,569.9242 Q1321.0375,569.8617 1321.2063,569.6867 Q1321.3125,569.5805 1321.3688,569.5492 Q1321.4313,569.518 1321.5125,569.518 Q1321.6438,569.518 1321.7438,569.6242 Q1321.85,569.7242 1321.85,569.8617 Q1321.85,569.9992 1321.7125,570.1617 Q1321.5125,570.393 1321.1938,570.5242 Q1320.7625,570.7055 1320.2438,570.7055 Q1319.6375,570.7055 1319.1563,570.4555 Q1318.7625,570.2555 1318.4875,569.8305 Q1318.2125,569.3992 1318.2125,568.8867 L1318.2125,568.4242 Q1318.2125,567.893 1318.4563,567.4367 Q1318.7063,566.9742 1319.1438,566.7305 Q1319.5813,566.4805 1320.075,566.4805 Q1320.3688,566.4805 1320.625,566.5492 Q1320.8875,566.6117 1321.1063,566.7555 Z " fill="#000000"/><text fill="#000000" font-family="sans-serif" font-size="5.6" lengthAdjust="spacing" textLength="36.0992" x="1325.6" y="570.7242">MediaEntryTO</text><line style="stroke:#181818;stroke-width:0.2;" x1="1314.4" x2="1362.4992" y1="574.8055" y2="574.8055"/><line style="stroke:#181818;stroke-width:0.2;" x1="1314.4" x2="1362.4992" y1="578.0055" y2="578.0055"/></g><!--class RatingTO--><g class="entity" data-entity="RatingTO" data-source-line="175" data-uid="ent0031" id="entity_RatingTO"><rect fill="#F1F1F1" height="19.2" rx="1" ry="1" style="stroke:#181818;stroke-width:0.2;" width="36.7641" x="1239.6" y="620.0055"/><ellipse cx="1245.6" cy="626.4055" fill="#ADD1B2" rx="4.4" ry="4.4" style="stroke:#181818;stroke-width:0.4;"/><path d="M1246.7063,624.7555 Q1246.7688,624.668 1246.8438,624.6242 Q1246.9188,624.5805 1247.0063,624.5805 Q1247.1563,624.5805 1247.25,624.6867 Q1247.3438,624.7867 1247.3438,625.0305 L1247.3438,625.6117 Q1247.3438,625.8555 1247.25,625.9617 Q1247.1563,626.068 1247.0063,626.068 Q1246.8688,626.068 1246.7875,625.9867 Q1246.7063,625.9117 1246.6625,625.7055 Q1246.6438,625.5617 1246.5688,625.4867 Q1246.4375,625.3367 1246.1938,625.2492 Q1245.95,625.1617 1245.7,625.1617 Q1245.3938,625.1617 1245.1375,625.293 Q1244.8875,625.4242 1244.6875,625.7242 Q1244.4938,626.0242 1244.4938,626.4367 L1244.4938,626.8742 Q1244.4938,627.368 1244.85,627.6992 Q1245.2063,628.0242 1245.8438,628.0242 Q1246.2188,628.0242 1246.4813,627.9242 Q1246.6375,627.8617 1246.8063,627.6867 Q1246.9125,627.5805 1246.9688,627.5492 Q1247.0313,627.518 1247.1125,627.518 Q1247.2438,627.518 1247.3438,627.6242 Q1247.45,627.7242 1247.45,627.8617 Q1247.45,627.9992 1247.3125,628.1617 Q1247.1125,628.393 1246.7938,628.5242 Q1246.3625,628.7055 1245.8438,628.7055 Q1245.2375,628.7055 1244.7563,628.4555 Q1244.3625,628.2555 1244.0875,627.8305 Q1243.8125,627.3992 1243.8125,626.8867 L1243.8125,626.4242 Q1243.8125,625.893 1244.0563,625.4367 Q1244.3063,624.9742 1244.7438,624.7305 Q1245.1813,624.4805 1245.675,624.4805 Q1245.9688,624.4805 1246.225,624.5492 Q1246.4875,624.6117 1246.7063,624.7555 Z " fill="#000000"/><text fill="#000000" font-family="sans-serif" font-size="5.6" lengthAdjust="spacing" textLength="23.9641" x="1251.2" y="628.7242">RatingTO</text><line style="stroke:#181818;stroke-width:0.2;" x1="1240" x2="1275.9641" y1="632.8055" y2="632.8055"/><line style="stroke:#181818;stroke-width:0.2;" x1="1240" x2="1275.9641" y1="636.0055" y2="636.0055"/></g><!--class Database--><g class="entity" data-entity="Database" data-source-line="177" data-uid="ent0032" id="entity_Database"><rect fill="#F1F1F1" height="168.1688" rx="1" ry="1" style="stroke:#181818;stroke-width:0.2;" width="141.4449" x="88.4" y="186.0055"/><ellipse cx="145.4363" cy="192.4055" fill="#ADD1B2" rx="4.4" ry="4.4" style="stroke:#181818;stroke-width:0.4;"/><path d="M146.5426,190.7555 Q146.6051,190.668 146.6801,190.6242 Q146.7551,190.5805 146.8426,190.5805 Q146.9926,190.5805 147.0863,190.6867 Q147.1801,190.7867 147.1801,191.0305 L147.1801,191.6117 Q147.1801,191.8555 147.0863,191.9617 Q146.9926,192.068 146.8426,192.068 Q146.7051,192.068 146.6238,191.9867 Q146.5426,191.9117 146.4988,191.7055 Q146.4801,191.5617 146.4051,191.4867 Q146.2738,191.3367 146.0301,191.2492 Q145.7863,191.1617 145.5363,191.1617 Q145.2301,191.1617 144.9738,191.293 Q144.7238,191.4242 144.5238,191.7242 Q144.3301,192.0242 144.3301,192.4367 L144.3301,192.8742 Q144.3301,193.368 144.6863,193.6992 Q145.0426,194.0242 145.6801,194.0242 Q146.0551,194.0242 146.3176,193.9242 Q146.4738,193.8617 146.6426,193.6867 Q146.7488,193.5805 146.8051,193.5492 Q146.8676,193.518 146.9488,193.518 Q147.0801,193.518 147.1801,193.6242 Q147.2863,193.7242 147.2863,193.8617 Q147.2863,193.9992 147.1488,194.1617 Q146.9488,194.393 146.6301,194.5242 Q146.1988,194.7055 145.6801,194.7055 Q145.0738,194.7055 144.5926,194.4555 Q144.1988,194.2555 143.9238,193.8305 Q143.6488,193.3992 143.6488,192.8867 L143.6488,192.4242 Q143.6488,191.893 143.8926,191.4367 Q144.1426,190.9742 144.5801,190.7305 Q145.0176,190.4805 145.5113,190.4805 Q145.8051,190.4805 146.0613,190.5492 Q146.3238,190.6117 146.5426,190.7555 Z " fill="#000000"/><text fill="#000000" font-family="sans-serif" font-size="5.6" lengthAdjust="spacing" textLength="23.9723" x="153.6363" y="194.7242">Database</text><line style="stroke:#181818;stroke-width:0.2;" x1="88.8" x2="229.4449" y1="198.8055" y2="198.8055"/><rect fill="none" height="2.4" style="stroke:#C82930;stroke-width:0.4;" width="2.4" x="91.6" y="203.5297"/><text fill="#000000" font-family="sans-serif" font-size="5.6" lengthAdjust="spacing" textLength="22.4082" x="96.4" y="206.4484">String url</text><rect fill="none" height="2.4" style="stroke:#C82930;stroke-width:0.4;" width="2.4" x="91.6" y="210.9781"/><text fill="#000000" font-family="sans-serif" font-size="5.6" lengthAdjust="spacing" textLength="27.0785" x="96.4" y="213.8969">String user</text><rect fill="none" height="2.4" style="stroke:#C82930;stroke-width:0.4;" width="2.4" x="91.6" y="218.4266"/><text fill="#000000" font-family="sans-serif" font-size="5.6" lengthAdjust="spacing" textLength="40.1516" x="96.4" y="221.3453">String password</text><rect fill="none" height="2.4" style="stroke:#C82930;stroke-width:0.4;" width="2.4" x="91.6" y="225.875"/><text fill="#000000" font-family="sans-serif" font-size="5.6" lengthAdjust="spacing" textLength="56.9734" x="96.4" y="228.7938">Connection connection</text><line style="stroke:#181818;stroke-width:0.2;" x1="88.8" x2="229.4449" y1="231.7992" y2="231.7992"/><rect fill="#F24D5C" height="2.4" style="stroke:#C82930;stroke-width:0.4;" width="2.4" x="91.6" y="236.5234"/><text fill="#000000" font-family="sans-serif" font-size="5.6" lengthAdjust="spacing" textLength="35.1723" x="96.4" y="239.4422">void connect()</text><ellipse cx="92.8" cy="245.1719" fill="#84BE84" rx="1.2" ry="1.2" style="stroke:#038048;stroke-width:0.4;"/><text fill="#000000" font-family="sans-serif" font-size="5.6" lengthAdjust="spacing" textLength="69.732" x="96.4" y="246.8906">Connection getConnection()</text><ellipse cx="92.8" cy="252.6203" fill="#84BE84" rx="1.2" ry="1.2" style="stroke:#038048;stroke-width:0.4;"/><text fill="#000000" font-family="sans-serif" font-size="5.6" lengthAdjust="spacing" textLength="75.9418" x="96.4" y="254.3391">ResultSet query(String,Object)</text><ellipse cx="92.8" cy="260.0688" fill="#84BE84" rx="1.2" ry="1.2" style="stroke:#038048;stroke-width:0.4;"/><text fill="#000000" font-family="sans-serif" font-size="5.6" lengthAdjust="spacing" textLength="60.6977" x="96.4" y="261.7875">int update(String,Object)</text><ellipse cx="92.8" cy="267.5172" fill="#84BE84" rx="1.2" ry="1.2" style="stroke:#038048;stroke-width:0.4;"/><text fill="#000000" font-family="sans-serif" font-size="5.6" lengthAdjust="spacing" textLength="65.0371" x="96.4" y="269.2359">UUID insert(String,Object)</text><ellipse cx="92.8" cy="274.9656" fill="#84BE84" rx="1.2" ry="1.2" style="stroke:#038048;stroke-width:0.4;"/><text fill="#000000" font-family="sans-serif" font-size="5.6" lengthAdjust="spacing" textLength="71.9004" x="96.4" y="276.6844">boolean exists(String,Object)</text><rect fill="#F24D5C" height="2.4" style="stroke:#C82930;stroke-width:0.4;" width="2.4" x="91.6" y="281.2141"/><text fill="#000000" font-family="sans-serif" font-size="5.6" lengthAdjust="spacing" textLength="131.0449" x="96.4" y="284.1328">PreparedStatement prepareStatement(String,Object)</text><rect fill="#F24D5C" height="2.4" style="stroke:#C82930;stroke-width:0.4;" width="2.4" x="91.6" y="288.6625"/><text fill="#000000" font-family="sans-serif" font-size="5.6" lengthAdjust="spacing" textLength="118.2754" x="96.4" y="291.5813">void setParameters(PreparedStatement,Object)</text><ellipse cx="92.8" cy="297.3109" fill="#84BE84" rx="1.2" ry="1.2" style="stroke:#038048;stroke-width:0.4;"/><text fill="#000000" font-family="sans-serif" font-size="5.6" lengthAdjust="spacing" textLength="80.9102" x="96.4" y="299.0297">UUID getUUID(ResultSet,String)</text><ellipse cx="92.8" cy="304.7594" fill="#84BE84" rx="1.2" ry="1.2" style="stroke:#038048;stroke-width:0.4;"/><text fill="#000000" font-family="sans-serif" font-size="5.6" lengthAdjust="spacing" textLength="28.6316" x="96.4" y="306.4781">void close()</text><ellipse cx="92.8" cy="312.2078" fill="#84BE84" rx="1.2" ry="1.2" style="stroke:#038048;stroke-width:0.4;"/><text fill="#000000" font-family="sans-serif" font-size="5.6" lengthAdjust="spacing" textLength="72.1957" x="96.4" y="313.9266">UUID getUUID(ResultSet,int)</text><ellipse cx="92.8" cy="319.6563" fill="#84BE84" rx="1.2" ry="1.2" style="stroke:#038048;stroke-width:0.4;"/><text fill="#000000" font-family="sans-serif" font-size="5.6" lengthAdjust="spacing" textLength="75.9473" x="96.4" y="321.375">Object getValue(String,Object)</text><ellipse cx="92.8" cy="327.1047" fill="#84BE84" rx="1.2" ry="1.2" style="stroke:#038048;stroke-width:0.4;"/><text fill="#000000" font-family="sans-serif" font-size="5.6" lengthAdjust="spacing" textLength="94.0023" x="96.4" y="328.8234">List&lt;Object&gt; getValues(String,Object)</text><ellipse cx="92.8" cy="334.5531" fill="#84BE84" rx="1.2" ry="1.2" style="stroke:#038048;stroke-width:0.4;"/><text fill="#000000" font-family="sans-serif" font-size="5.6" lengthAdjust="spacing" textLength="58.5184" x="96.4" y="336.2719">void beginTransaction()</text><ellipse cx="92.8" cy="342.0016" fill="#84BE84" rx="1.2" ry="1.2" style="stroke:#038048;stroke-width:0.4;"/><text fill="#000000" font-family="sans-serif" font-size="5.6" lengthAdjust="spacing" textLength="33.6027" x="96.4" y="343.7203">void commit()</text><ellipse cx="92.8" cy="349.45" fill="#84BE84" rx="1.2" ry="1.2" style="stroke:#038048;stroke-width:0.4;"/><text fill="#000000" font-family="sans-serif" font-size="5.6" lengthAdjust="spacing" textLength="34.8551" x="96.4" y="351.1688">void rollback()</text></g><!--class HttpHandler--><g class="entity" data-entity="HttpHandler" data-source-line="204" data-uid="ent0035" id="entity_HttpHandler"><rect fill="#F1F1F1" height="19.2" rx="1" ry="1" style="stroke:#181818;stroke-width:0.2;" width="42.6813" x="570.2" y="71.2055"/><ellipse cx="576.2" cy="77.6055" fill="#ADD1B2" rx="4.4" ry="4.4" style="stroke:#181818;stroke-width:0.4;"/><path d="M577.3063,75.9555 Q577.3688,75.868 577.4438,75.8242 Q577.5188,75.7805 577.6063,75.7805 Q577.7563,75.7805 577.85,75.8867 Q577.9438,75.9867 577.9438,76.2305 L577.9438,76.8117 Q577.9438,77.0555 577.85,77.1617 Q577.7563,77.268 577.6063,77.268 Q577.4688,77.268 577.3875,77.1867 Q577.3063,77.1117 577.2625,76.9055 Q577.2438,76.7617 577.1688,76.6867 Q577.0375,76.5367 576.7938,76.4492 Q576.55,76.3617 576.3,76.3617 Q575.9938,76.3617 575.7375,76.493 Q575.4875,76.6242 575.2875,76.9242 Q575.0938,77.2242 575.0938,77.6367 L575.0938,78.0742 Q575.0938,78.568 575.45,78.8992 Q575.8063,79.2242 576.4438,79.2242 Q576.8188,79.2242 577.0813,79.1242 Q577.2375,79.0617 577.4063,78.8867 Q577.5125,78.7805 577.5688,78.7492 Q577.6313,78.718 577.7125,78.718 Q577.8438,78.718 577.9438,78.8242 Q578.05,78.9242 578.05,79.0617 Q578.05,79.1992 577.9125,79.3617 Q577.7125,79.593 577.3938,79.7242 Q576.9625,79.9055 576.4438,79.9055 Q575.8375,79.9055 575.3563,79.6555 Q574.9625,79.4555 574.6875,79.0305 Q574.4125,78.5992 574.4125,78.0867 L574.4125,77.6242 Q574.4125,77.093 574.6563,76.6367 Q574.9063,76.1742 575.3438,75.9305 Q575.7813,75.6805 576.275,75.6805 Q576.5688,75.6805 576.825,75.7492 Q577.0875,75.8117 577.3063,75.9555 Z " fill="#000000"/><text fill="#000000" font-family="sans-serif" font-size="5.6" lengthAdjust="spacing" textLength="29.8813" x="581.8" y="79.9242">HttpHandler</text><line style="stroke:#181818;stroke-width:0.2;" x1="570.6" x2="612.4813" y1="84.0055" y2="84.0055"/><line style="stroke:#181818;stroke-width:0.2;" x1="570.6" x2="612.4813" y1="87.2055" y2="87.2055"/></g><!--reverse link Repository to MediaEntryRepository--><g class="link" data-entity-1="Repository" data-entity-2="MediaEntryRepository" data-source-line="203" data-uid="lnk34" id="link_Repository_MediaEntryRepository"><path codeLine="203" d="M766.0679,300.9811 C749.5839,333.4411 723.6,384.5895 706.188,418.8735" fill="none" id="Repository-backto-MediaEntryRepository" style="stroke:#181818;stroke-width:0.4;stroke-dasharray:2.8,2.8;"/><polygon fill="none" points="769.328,294.5615,763.9281,299.8944,768.2078,302.0678,769.328,294.5615" style="stroke:#181818;stroke-width:0.4;"/></g><!--reverse link HttpHandler to AuthHandler--><g class="link" data-entity-1="HttpHandler" data-entity-2="AuthHandler" data-source-line="204" data-uid="lnk40" id="link_HttpHandler_AuthHandler"><path codeLine="204" d="M591.6,97.6215 C591.6,127.4295 591.6,214.3415 591.6,252.8935" fill="none" id="HttpHandler-backto-AuthHandler" style="stroke:#181818;stroke-width:0.4;stroke-dasharray:2.8,2.8;"/><polygon fill="none" points="591.6,90.4215,589.2,97.6215,594,97.6215,591.6,90.4215" style="stroke:#181818;stroke-width:0.4;"/></g><!--reverse link Repository to RatingRepository--><g class="link" data-entity-1="Repository" data-entity-2="RatingRepository" data-source-line="205" data-uid="lnk41" id="link_Repository_RatingRepository"><path codeLine="205" d="M781.6,301.7615 C781.6,334.2215 781.6,384.5895 781.6,418.8735" fill="none" id="Repository-backto-RatingRepository" style="stroke:#181818;stroke-width:0.4;stroke-dasharray:2.8,2.8;"/><polygon fill="none" points="781.6,294.5615,779.2,301.7615,784,301.7615,781.6,294.5615" style="stroke:#181818;stroke-width:0.4;"/></g><!--reverse link Repository to UserRepository--><g class="link" data-entity-1="Repository" data-entity-2="UserRepository" data-source-line="206" data-uid="lnk42" id="link_Repository_UserRepository"><path codeLine="206" d="M798.7136,300.837 C814.5296,328.957 837.408,369.6415 856.72,403.9855" fill="none" id="Repository-backto-UserRepository" style="stroke:#181818;stroke-width:0.4;stroke-dasharray:2.8,2.8;"/><polygon fill="none" points="795.184,294.5615,796.6218,302.0135,800.8055,299.6604,795.184,294.5615" style="stroke:#181818;stroke-width:0.4;"/></g><!--SRC=[jLVVZzis37xFNs5WBmbszUjU3WTuZjjaE5zkZdD0CGo5OhE9TxRaIlAjGNlzsqTA_XaxGT5jBub4aH95Vln49pbJoX7ou1QoT1N8bom1Ds8wuuUjdJbVPgypu5NHgXKYXTmD8SrOmBKynQUIj7vsd73pj0vei0sYTR2bqJil3723MJ8uIK8fLAQ5FFNsYLeXxlR6MJBDzao1a-vnezrklNGKUu5vx-3D0bSYK5Mkjw2TZnbFVpsjqpafqzABo587dGKDhMoexkNvV47-dJb8eG2vOZpDGRfUfO_r65txvj2y2G_hnis9HwCwNsbT1fyJd1rWweoGPTp4xOlI6F7arLeNA9vljSGK_F7duchiRAA-CsvM-N-CcSL5B9w16qVi7HnD0fmQJoeCx3h5MPmLWDSkIYUHm3IadiQ3QfC3QBFDVD7S02KxOsf4dJ7A_SQ-Tce2g- -0ongYdX-lDmzcj7mA7k9TP03hRy9W-Pv6oyWBFHh4gsXzVnz41i_- -iFRDOrMcoZQ6DbRxo7sjiOcseJUWsysMcxyNOZxUf5PyHxMeMTEV9s265LR7qmKDhfdBwNLODeaIC8XKnha6SZgrLmS44DZ_6KSJJuoF6WAJ7qOVUi1PxV0wN-3c644AftboYKJJ118XcSFww5ElLa3chpyOlBVAko5o85n9rDFBCzIKgbBPp7QfsHImK1Zv52gXKlXZpTz05C6E2kWavHezBUGwOSZKqT81y3TrTh6qKxyE3IPmkgGSoXx8UYZI2rm7pVRs11gOFuUT_RFY_sLmLrm7yGJJ6iBW9oou1eKuR-_u4HnZkzyaM49_XsTzn-SQLqwvRAMlQgbkUwoMJgwjfaLxRb6XgNX85oaydKNXaGK1N0IT43phUmfKza-fv3TYuJbIBf0hEJeXffe1Klqbdo-S_Bi6R1gUX6hepKHm4OKzZmq2-GZohVMpRDWrtuPwILlvssvgjQWlrGVS8_E-gBYUZ9nFSeuewfhhuyjg_RygamnOdKbtZIiqGQ3ghIba9kkeg-mqFbI2zDBrfQKfkch2I11nilnWKbFmMVCfkfpnmHvz7kJ2OHQmljD2Rw2lAnBicMfpVulI7J8Ibefp5-Vn6BBO15ygX1X0tQ_yUcOs_XkCM50npM1djHhtscZQRrOZDeI1Jp509Q2gs5hSuEekRbc5KWfvDXaWgTRassL9A3Kq6Z208DrMr_D_jtPE_zUWJmzCiaADVKUDDsL9IbwVWzK2jUoUzxq3WZcfpQ6cKPEQASfg4HcfSu4H-5Pnwpn1wNlWKbypX5k2cYC8Yf3Ti1CAzmcgQqDcPX6vewUH0cgxXLi0oNaY8hwZTKvwv1TqpjXSaYMYWfvWAJUos6R20dpIp1lMia9YATr_Rij4VHVKfaFNvtnYuCINt0Evjf8mCqGvGOTjSHut5Cq1DZCviDY_qHWQ2gW0of5UKX3tPfDB29Twl5YGmxGPuHs_OtpY0p99AJ8qne8Lqvf9QrWRDEGii4iCf5Kyz4sv_vT8qeRgroeisTwg8yXe5MxBwrZ5rLDXCDWpqxlMZKrrZEdxh4rvR5aNB4k6tNkYYBJtLoAFD-pvBd6sMnslIkz_Ugwt_i5ESEpN5LnbuDsZyWYjhaoNLNp9JVOx-87tmywTVvfzeFR35_OVm00]--></g></svg>